<svg width="1497" height="103" viewBox="0 0 1497 103" fill="none" xmlns="http://www.w3.org/2000/svg">
<g opacity="0.1">
<mask id="path-1-outside-1_2419_864" maskUnits="userSpaceOnUse" x="-0.287933" y="-0.181641" width="1497" height="104" fill="black">
<rect fill="white" x="-0.287933" y="-0.181641" width="1497" height="104"/>
<path d="M27.7747 78.8184L1.2548 5.93936H17.9562L33.8479 49.3631L49.7396 5.93936H64.2141L80.207 49.3631L96.0987 5.93936H112.699L86.1791 78.8184H74.1338L56.9263 31.9531L39.8199 78.8184H27.7747ZM119.424 78.8184V0.87832H134.911V20.1103H164.265C166.896 20.1103 169.326 20.7851 171.553 22.1347C173.779 23.4843 175.568 25.2725 176.917 27.4994C178.267 29.7263 178.942 32.1556 178.942 34.7873V78.8184H163.455V35.5971H134.911V78.8184H119.424ZM195.134 99.8723V84.2843H229.954V78.8184H200.6C197.9 78.8184 195.437 78.1436 193.211 76.7939C190.984 75.4443 189.196 73.6561 187.846 71.4292C186.496 69.2024 185.821 66.7731 185.821 64.1413V20.3127H201.308V63.3316H229.954V20.3127H245.441V85.1953C245.441 87.8945 244.766 90.3575 243.416 92.5844C242.134 94.8113 240.38 96.5657 238.153 97.8479C235.926 99.1975 233.463 99.8723 230.764 99.8723H195.134ZM313.546 78.8184L287.026 5.93936H303.727L319.619 49.3631L335.51 5.93936H349.985L365.978 49.3631L381.87 5.93936H398.47L371.95 78.8184H359.905L342.697 31.9531L325.591 78.8184H313.546ZM414.527 78.8184C411.895 78.8184 409.466 78.1436 407.239 76.7939C405.012 75.4443 403.224 73.6561 401.874 71.4292C400.525 69.2024 399.85 66.7731 399.85 64.1413V34.7873C399.85 32.1556 400.525 29.7263 401.874 27.4994C403.224 25.2725 405.012 23.4843 407.239 22.1347C409.466 20.7851 411.895 20.1103 414.527 20.1103H444.691C447.39 20.1103 449.853 20.7851 452.08 22.1347C454.307 23.4843 456.061 25.2725 457.343 27.4994C458.693 29.7263 459.368 32.1556 459.368 34.7873V57.2583H415.337V63.3316H459.368V78.8184H414.527ZM415.337 43.6947H443.881V35.5971H415.337V43.6947ZM503.262 78.8184V20.92C503.262 18.1533 503.937 15.6566 505.286 13.4297C506.636 11.1354 508.458 9.31339 510.752 7.96378C513.047 6.61417 515.543 5.93936 518.243 5.93936H561.059C563.826 5.93936 566.322 6.61417 568.549 7.96378C570.844 9.31339 572.666 11.1354 574.015 13.4297C575.432 15.6566 576.141 18.1533 576.141 20.92V78.8184H560.249V55.3351H518.951V78.8184H503.262ZM518.951 39.5447H560.249V21.7298H518.951V39.5447ZM587.269 78.8184V34.7873C587.269 32.1556 587.944 29.7263 589.293 27.4994C590.643 25.2725 592.431 23.4843 594.658 22.1347C596.885 20.7851 599.348 20.1103 602.047 20.1103H634.438V35.5971H602.756V78.8184H587.269ZM656.112 78.8184C653.481 78.8184 651.051 78.1436 648.824 76.7939C646.598 75.4443 644.809 73.6561 643.46 71.4292C642.11 69.2024 641.435 66.7731 641.435 64.1413V34.7873C641.435 32.1556 642.11 29.7263 643.46 27.4994C644.809 25.2725 646.598 23.4843 648.824 22.1347C651.051 20.7851 653.481 20.1103 656.112 20.1103H686.276C688.975 20.1103 691.438 20.7851 693.665 22.1347C695.892 23.4843 697.647 25.2725 698.929 27.4994C700.278 29.7263 700.953 32.1556 700.953 34.7873V57.2583H656.922V63.3316H700.953V78.8184H656.112ZM656.922 43.6947H685.466V35.5971H656.922V43.6947ZM801.227 78.8184L780.072 53.6144H800.62L817.423 73.4537V78.8184H801.227ZM744.645 78.8184V6.04058H802.442C805.209 6.04058 807.706 6.71539 809.932 8.065C812.227 9.41461 814.049 11.2366 815.398 13.5309C816.815 15.8253 817.524 18.322 817.524 21.0213V39.8483C817.524 42.5476 816.815 45.0443 815.398 47.3387C814.049 49.633 812.227 51.455 809.932 52.8046C807.706 54.1542 805.209 54.829 802.442 54.829L760.334 54.9302V78.8184H744.645ZM760.334 39.0386H801.632V21.7298H760.334V39.0386ZM827.767 78.8184V20.1103H843.254V78.8184H827.767ZM827.767 16.4663V0.87832H843.254V16.4663H827.767ZM859.097 101.998V86.4099H893.917V78.8184H864.562C861.863 78.8184 859.4 78.1436 857.173 76.7939C854.947 75.4443 853.158 73.6561 851.809 71.4292C850.459 69.2024 849.784 66.7731 849.784 64.1413V34.7873C849.784 32.1556 850.459 29.7263 851.809 27.4994C853.158 25.2725 854.947 23.4843 857.173 22.1347C859.4 20.7851 861.863 20.1103 864.562 20.1103H894.726C897.426 20.1103 899.889 20.7851 902.115 22.1347C904.342 23.4843 906.097 25.2725 907.379 27.4994C908.729 29.7263 909.403 32.1556 909.403 34.7873V87.3209C909.403 90.0201 908.729 92.4832 907.379 94.71C906.097 96.9369 904.342 98.6914 902.115 99.9735C899.889 101.323 897.426 101.998 894.726 101.998H859.097ZM865.271 63.3316H893.917V35.5971H865.271V63.3316ZM920.195 78.8184V0.87832H935.682V20.1103H965.036C967.668 20.1103 970.097 20.7851 972.324 22.1347C974.551 23.4843 976.339 25.2725 977.689 27.4994C979.038 29.7263 979.713 32.1556 979.713 34.7873V78.8184H964.226V35.5971H935.682V78.8184H920.195ZM1002.48 78.8184C999.785 78.8184 997.322 78.1436 995.095 76.7939C992.869 75.4443 991.08 73.6561 989.731 71.4292C988.381 69.2024 987.706 66.7731 987.706 64.1413V2.7003H1003.19V20.1103H1024.96V35.5971H1003.19V63.3316H1024.96V78.8184H1002.48ZM1066.5 78.8184V5.93936H1133.81V21.7298H1082.39V34.4836H1123.79V50.2741H1082.39V78.8184H1066.5ZM1153.62 78.8184C1150.98 78.8184 1148.56 78.1436 1146.33 76.7939C1144.1 75.4443 1142.31 73.6561 1140.96 71.4292C1139.61 69.2024 1138.94 66.7731 1138.94 64.1413V34.7873C1138.94 32.1556 1139.61 29.7263 1140.96 27.4994C1142.31 25.2725 1144.1 23.4843 1146.33 22.1347C1148.56 20.7851 1150.98 20.1103 1153.62 20.1103H1183.78C1186.48 20.1103 1188.94 20.7851 1191.17 22.1347C1193.4 23.4843 1195.15 25.2725 1196.43 27.4994C1197.78 29.7263 1198.46 32.1556 1198.46 34.7873V64.1413C1198.46 66.7731 1197.78 69.2024 1196.43 71.4292C1195.15 73.6561 1193.4 75.4443 1191.17 76.7939C1188.94 78.1436 1186.48 78.8184 1183.78 78.8184H1153.62ZM1154.43 63.3316H1182.97V35.5971H1154.43V63.3316ZM1206.46 78.8184V34.7873C1206.46 32.1556 1207.13 29.7263 1208.48 27.4994C1209.83 25.2725 1211.62 23.4843 1213.84 22.1347C1216.07 20.7851 1218.53 20.1103 1221.23 20.1103H1253.62V35.5971H1221.94V78.8184H1206.46ZM1319.89 78.8184V51.59L1286.18 5.93936H1304.91L1327.78 34.6861L1350.56 5.93936H1369.49L1335.68 51.6912V78.8184H1319.89ZM1383.34 78.8184C1380.71 78.8184 1378.28 78.1436 1376.05 76.7939C1373.83 75.4443 1372.04 73.6561 1370.69 71.4292C1369.34 69.2024 1368.66 66.7731 1368.66 64.1413V34.7873C1368.66 32.1556 1369.34 29.7263 1370.69 27.4994C1372.04 25.2725 1373.83 23.4843 1376.05 22.1347C1378.28 20.7851 1380.71 20.1103 1383.34 20.1103H1413.5C1416.2 20.1103 1418.67 20.7851 1420.89 22.1347C1423.12 23.4843 1424.87 25.2725 1426.16 27.4994C1427.51 29.7263 1428.18 32.1556 1428.18 34.7873V64.1413C1428.18 66.7731 1427.51 69.2024 1426.16 71.4292C1424.87 73.6561 1423.12 75.4443 1420.89 76.7939C1418.67 78.1436 1416.2 78.8184 1413.5 78.8184H1383.34ZM1384.15 63.3316H1412.69V35.5971H1384.15V63.3316ZM1450.86 78.8184C1448.16 78.8184 1445.7 78.1436 1443.47 76.7939C1441.24 75.4443 1439.45 73.6561 1438.1 71.4292C1436.82 69.2024 1436.18 66.7731 1436.18 64.1413V20.1103H1451.67V63.3316H1480.21V20.1103H1495.7V64.1413C1495.7 66.7731 1495.02 69.2024 1493.68 71.4292C1492.39 73.6561 1490.64 75.4443 1488.41 76.7939C1486.18 78.1436 1483.72 78.8184 1481.02 78.8184H1450.86Z"/>
</mask>
<path d="M27.7747 78.8184L26.9489 79.1188L27.1593 79.697H27.7747V78.8184ZM1.2548 5.93936V5.06068H4.52995e-06L0.429084 6.23983L1.2548 5.93936ZM17.9562 5.93936L18.7814 5.63738L18.5703 5.06068H17.9562V5.93936ZM33.8479 49.3631L33.0227 49.6651L33.8479 51.9198L34.6731 49.6651L33.8479 49.3631ZM49.7396 5.93936V5.06068H49.1255L48.9144 5.63738L49.7396 5.93936ZM64.2141 5.93936L65.0387 5.63569L64.8269 5.06068H64.2141V5.93936ZM80.207 49.3631L79.3825 49.6668L80.2097 51.9127L81.0322 49.6651L80.207 49.3631ZM96.0987 5.93936V5.06068H95.4846L95.2736 5.63738L96.0987 5.93936ZM112.699 5.93936L113.525 6.23983L113.954 5.06068H112.699V5.93936ZM86.1791 78.8184V79.697H86.7944L87.0048 79.1188L86.1791 78.8184ZM74.1338 78.8184L73.309 79.1212L73.5204 79.697H74.1338V78.8184ZM56.9263 31.9531L57.7511 31.6503L56.9238 29.3972L56.1008 31.6518L56.9263 31.9531ZM39.8199 78.8184V79.697H40.4346L40.6453 79.1196L39.8199 78.8184ZM27.7747 78.8184L28.6004 78.5179L2.08051 5.63889L1.2548 5.93936L0.429084 6.23983L26.9489 79.1188L27.7747 78.8184ZM1.2548 5.93936V6.81805H17.9562V5.93936V5.06068H1.2548V5.93936ZM17.9562 5.93936L17.1311 6.24134L33.0227 49.6651L33.8479 49.3631L34.6731 49.0611L18.7814 5.63738L17.9562 5.93936ZM33.8479 49.3631L34.6731 49.6651L50.5647 6.24134L49.7396 5.93936L48.9144 5.63738L33.0227 49.0611L33.8479 49.3631ZM49.7396 5.93936V6.81805H64.2141V5.93936V5.06068H49.7396V5.93936ZM64.2141 5.93936L63.3896 6.24304L79.3825 49.6668L80.207 49.3631L81.0316 49.0594L65.0387 5.63569L64.2141 5.93936ZM80.207 49.3631L81.0322 49.6651L96.9239 6.24134L96.0987 5.93936L95.2736 5.63738L79.3819 49.0611L80.207 49.3631ZM96.0987 5.93936V6.81805H112.699V5.93936V5.06068H96.0987V5.93936ZM112.699 5.93936L111.873 5.63889L85.3534 78.5179L86.1791 78.8184L87.0048 79.1188L113.525 6.23983L112.699 5.93936ZM86.1791 78.8184V77.9397H74.1338V78.8184V79.697H86.1791V78.8184ZM74.1338 78.8184L74.9586 78.5155L57.7511 31.6503L56.9263 31.9531L56.1014 32.256L73.309 79.1212L74.1338 78.8184ZM56.9263 31.9531L56.1008 31.6518L38.9945 78.5171L39.8199 78.8184L40.6453 79.1196L57.7517 32.2544L56.9263 31.9531ZM39.8199 78.8184V77.9397H27.7747V78.8184V79.697H39.8199V78.8184ZM119.424 78.8184H118.545V79.697H119.424V78.8184ZM119.424 0.878319V-0.000358582H118.545V0.878319H119.424ZM134.911 0.878319H135.789V-0.000358582H134.911V0.878319ZM134.911 20.1103H134.032V20.989H134.911V20.1103ZM171.553 22.1347L171.097 22.8861V22.8861L171.553 22.1347ZM176.917 27.4994L177.669 27.044L176.917 27.4994ZM178.942 78.8184V79.697H179.82V78.8184H178.942ZM163.455 78.8184H162.576V79.697H163.455V78.8184ZM163.455 35.5971H164.334V34.7184H163.455V35.5971ZM134.911 35.5971V34.7184H134.032V35.5971H134.911ZM134.911 78.8184V79.697H135.789V78.8184H134.911ZM119.424 78.8184H120.302V0.878319H119.424H118.545V78.8184H119.424ZM119.424 0.878319V1.757H134.911V0.878319V-0.000358582H119.424V0.878319ZM134.911 0.878319H134.032V20.1103H134.911H135.789V0.878319H134.911ZM134.911 20.1103V20.989H164.265V20.1103V19.2316H134.911V20.1103ZM164.265 20.1103V20.989C166.738 20.989 169.009 21.6207 171.097 22.8861L171.553 22.1347L172.008 21.3833C169.642 19.9495 167.055 19.2316 164.265 19.2316V20.1103ZM171.553 22.1347L171.097 22.8861C173.203 24.1624 174.89 25.849 176.166 27.9548L176.917 27.4994L177.669 27.044C176.246 24.696 174.356 22.8062 172.008 21.3833L171.553 22.1347ZM176.917 27.4994L176.166 27.9548C177.431 30.0428 178.063 32.3143 178.063 34.7873H178.942H179.82C179.82 31.9968 179.102 29.4097 177.669 27.044L176.917 27.4994ZM178.942 34.7873H178.063V78.8184H178.942H179.82V34.7873H178.942ZM178.942 78.8184V77.9397H163.455V78.8184V79.697H178.942V78.8184ZM163.455 78.8184H164.334V35.5971H163.455H162.576V78.8184H163.455ZM163.455 35.5971V34.7184H134.911V35.5971V36.4757H163.455V35.5971ZM134.911 35.5971H134.032V78.8184H134.911H135.789V35.5971H134.911ZM134.911 78.8184V77.9397H119.424V78.8184V79.697H134.911V78.8184ZM195.134 99.8723H194.255V100.751H195.134V99.8723ZM195.134 84.2843V83.4056H194.255V84.2843H195.134ZM229.954 84.2843V85.163H230.832V84.2843H229.954ZM229.954 78.8184H230.832V77.9397H229.954V78.8184ZM187.846 71.4292L188.597 70.9738V70.9738L187.846 71.4292ZM185.821 20.3127V19.434H184.943V20.3127H185.821ZM201.308 20.3127H202.187V19.434H201.308V20.3127ZM201.308 63.3316H200.43V64.2103H201.308V63.3316ZM229.954 63.3316V64.2103H230.832V63.3316H229.954ZM229.954 20.3127V19.434H229.075V20.3127H229.954ZM245.441 20.3127H246.319V19.434H245.441V20.3127ZM243.416 92.5844L242.665 92.129L242.66 92.1374L242.655 92.146L243.416 92.5844ZM238.153 97.8479L237.714 97.0864L237.706 97.0913L237.697 97.0964L238.153 97.8479ZM195.134 99.8723H196.012V84.2843H195.134H194.255V99.8723H195.134ZM195.134 84.2843V85.163H229.954V84.2843V83.4056H195.134V84.2843ZM229.954 84.2843H230.832V78.8184H229.954H229.075V84.2843H229.954ZM229.954 78.8184V77.9397H200.6V78.8184V79.697H229.954V78.8184ZM200.6 78.8184V77.9397C198.055 77.9397 195.75 77.3057 193.666 76.0425L193.211 76.7939L192.755 77.5454C195.125 78.9814 197.746 79.697 200.6 79.697V78.8184ZM193.211 76.7939L193.666 76.0425C191.56 74.7663 189.874 73.0796 188.597 70.9738L187.846 71.4292L187.094 71.8847C188.517 74.2326 190.407 76.1224 192.755 77.5454L193.211 76.7939ZM187.846 71.4292L188.597 70.9738C187.332 68.8858 186.7 66.6143 186.7 64.1413H185.821H184.943C184.943 66.9319 185.661 69.5189 187.094 71.8847L187.846 71.4292ZM185.821 64.1413H186.7V20.3127H185.821H184.943V64.1413H185.821ZM185.821 20.3127V21.1914H201.308V20.3127V19.434H185.821V20.3127ZM201.308 20.3127H200.43V63.3316H201.308H202.187V20.3127H201.308ZM201.308 63.3316V64.2103H229.954V63.3316V62.4529H201.308V63.3316ZM229.954 63.3316H230.832V20.3127H229.954H229.075V63.3316H229.954ZM229.954 20.3127V21.1914H245.441V20.3127V19.434H229.954V20.3127ZM245.441 20.3127H244.562V85.1953H245.441H246.319V20.3127H245.441ZM245.441 85.1953H244.562C244.562 87.7401 243.928 90.0446 242.665 92.129L243.416 92.5844L244.168 93.0398C245.604 90.6704 246.319 88.0489 246.319 85.1953H245.441ZM243.416 92.5844L242.655 92.146C241.45 94.2385 239.807 95.8816 237.714 97.0864L238.153 97.8479L238.591 98.6094C240.952 97.2499 242.818 95.384 244.178 93.0228L243.416 92.5844ZM238.153 97.8479L237.697 97.0964C235.613 98.3597 233.308 98.9936 230.764 98.9936V99.8723V100.751C233.617 100.751 236.239 100.035 238.608 98.5993L238.153 97.8479ZM230.764 99.8723V98.9936H195.134V99.8723V100.751H230.764V99.8723ZM313.546 78.8184L312.72 79.1188L312.93 79.697H313.546V78.8184ZM287.026 5.93936V5.06068H285.771L286.2 6.23983L287.026 5.93936ZM303.727 5.93936L304.552 5.63738L304.341 5.06068H303.727V5.93936ZM319.619 49.3631L318.794 49.6651L319.619 51.9198L320.444 49.6651L319.619 49.3631ZM335.51 5.93936V5.06068H334.896L334.685 5.63738L335.51 5.93936ZM349.985 5.93936L350.81 5.63569L350.598 5.06068H349.985V5.93936ZM365.978 49.3631L365.153 49.6668L365.981 51.9127L366.803 49.6651L365.978 49.3631ZM381.87 5.93936V5.06068H381.256L381.044 5.63738L381.87 5.93936ZM398.47 5.93936L399.296 6.23983L399.725 5.06068H398.47V5.93936ZM371.95 78.8184V79.697H372.565L372.776 79.1188L371.95 78.8184ZM359.905 78.8184L359.08 79.1212L359.291 79.697H359.905V78.8184ZM342.697 31.9531L343.522 31.6503L342.695 29.3972L341.872 31.6518L342.697 31.9531ZM325.591 78.8184V79.697H326.206L326.416 79.1196L325.591 78.8184ZM313.546 78.8184L314.371 78.5179L287.851 5.63889L287.026 5.93936L286.2 6.23983L312.72 79.1188L313.546 78.8184ZM287.026 5.93936V6.81805H303.727V5.93936V5.06068H287.026V5.93936ZM303.727 5.93936L302.902 6.24134L318.794 49.6651L319.619 49.3631L320.444 49.0611L304.552 5.63738L303.727 5.93936ZM319.619 49.3631L320.444 49.6651L336.336 6.24134L335.51 5.93936L334.685 5.63738L318.794 49.0611L319.619 49.3631ZM335.51 5.93936V6.81805H349.985V5.93936V5.06068H335.51V5.93936ZM349.985 5.93936L349.161 6.24304L365.153 49.6668L365.978 49.3631L366.802 49.0594L350.81 5.63569L349.985 5.93936ZM365.978 49.3631L366.803 49.6651L382.695 6.24134L381.87 5.93936L381.044 5.63738L365.153 49.0611L365.978 49.3631ZM381.87 5.93936V6.81805H398.47V5.93936V5.06068H381.87V5.93936ZM398.47 5.93936L397.644 5.63889L371.124 78.5179L371.95 78.8184L372.776 79.1188L399.296 6.23983L398.47 5.93936ZM371.95 78.8184V77.9397H359.905V78.8184V79.697H371.95V78.8184ZM359.905 78.8184L360.73 78.5155L343.522 31.6503L342.697 31.9531L341.872 32.256L359.08 79.1212L359.905 78.8184ZM342.697 31.9531L341.872 31.6518L324.765 78.5171L325.591 78.8184L326.416 79.1196L343.523 32.2544L342.697 31.9531ZM325.591 78.8184V77.9397H313.546V78.8184V79.697H325.591V78.8184ZM401.874 71.4292L401.123 71.8847V71.8847L401.874 71.4292ZM401.874 27.4994L401.123 27.044V27.044L401.874 27.4994ZM407.239 22.1347L407.694 22.8861V22.8861L407.239 22.1347ZM452.08 22.1347L451.624 22.8861V22.8861L452.08 22.1347ZM457.343 27.4994L456.582 27.9378L456.587 27.9464L456.592 27.9548L457.343 27.4994ZM459.368 57.2583V58.137H460.246V57.2583H459.368ZM415.337 57.2583V56.3796H414.458V57.2583H415.337ZM415.337 63.3316H414.458V64.2103H415.337V63.3316ZM459.368 63.3316H460.246V62.4529H459.368V63.3316ZM459.368 78.8184V79.697H460.246V78.8184H459.368ZM415.337 43.6947H414.458V44.5734H415.337V43.6947ZM443.881 43.6947V44.5734H444.759V43.6947H443.881ZM443.881 35.5971H444.759V34.7184H443.881V35.5971ZM415.337 35.5971V34.7184H414.458V35.5971H415.337ZM414.527 78.8184V77.9397C412.054 77.9397 409.782 77.3079 407.694 76.0425L407.239 76.7939L406.783 77.5454C409.149 78.9792 411.736 79.697 414.527 79.697V78.8184ZM407.239 76.7939L407.694 76.0425C405.589 74.7663 403.902 73.0796 402.626 70.9738L401.874 71.4292L401.123 71.8847C402.546 74.2326 404.436 76.1224 406.783 77.5454L407.239 76.7939ZM401.874 71.4292L402.626 70.9738C401.36 68.8858 400.728 66.6143 400.728 64.1413H399.85H398.971C398.971 66.9319 399.689 69.5189 401.123 71.8847L401.874 71.4292ZM399.85 64.1413H400.728V34.7873H399.85H398.971V64.1413H399.85ZM399.85 34.7873H400.728C400.728 32.3143 401.36 30.0428 402.626 27.9548L401.874 27.4994L401.123 27.044C399.689 29.4097 398.971 31.9968 398.971 34.7873H399.85ZM401.874 27.4994L402.626 27.9548C403.902 25.849 405.589 24.1624 407.694 22.8861L407.239 22.1347L406.783 21.3833C404.436 22.8062 402.546 24.696 401.123 27.044L401.874 27.4994ZM407.239 22.1347L407.694 22.8861C409.782 21.6207 412.054 20.989 414.527 20.989V20.1103V19.2316C411.736 19.2316 409.149 19.9495 406.783 21.3833L407.239 22.1347ZM414.527 20.1103V20.989H444.691V20.1103V19.2316H414.527V20.1103ZM444.691 20.1103V20.989C447.235 20.989 449.54 21.6229 451.624 22.8861L452.08 22.1347L452.535 21.3833C450.166 19.9473 447.544 19.2316 444.691 19.2316V20.1103ZM452.08 22.1347L451.624 22.8861C453.726 24.16 455.375 25.8412 456.582 27.9378L457.343 27.4994L458.105 27.061C456.748 24.7038 454.887 22.8086 452.535 21.3833L452.08 22.1347ZM457.343 27.4994L456.592 27.9548C457.857 30.0428 458.489 32.3143 458.489 34.7873H459.368H460.246C460.246 31.9968 459.528 29.4097 458.095 27.044L457.343 27.4994ZM459.368 34.7873H458.489V57.2583H459.368H460.246V34.7873H459.368ZM459.368 57.2583V56.3796H415.337V57.2583V58.137H459.368V57.2583ZM415.337 57.2583H414.458V63.3316H415.337H416.215V57.2583H415.337ZM415.337 63.3316V64.2103H459.368V63.3316V62.4529H415.337V63.3316ZM459.368 63.3316H458.489V78.8184H459.368H460.246V63.3316H459.368ZM459.368 78.8184V77.9397H414.527V78.8184V79.697H459.368V78.8184ZM415.337 43.6947V44.5734H443.881V43.6947V42.8161H415.337V43.6947ZM443.881 43.6947H444.759V35.5971H443.881H443.002V43.6947H443.881ZM443.881 35.5971V34.7184H415.337V35.5971V36.4757H443.881V35.5971ZM415.337 35.5971H414.458V43.6947H415.337H416.215V35.5971H415.337ZM503.262 78.8184H502.383V79.697H503.262V78.8184ZM505.286 13.4297L506.038 13.8852L506.044 13.8752L505.286 13.4297ZM510.752 7.96378L510.307 7.20641V7.20641L510.752 7.96378ZM568.549 7.96378L568.094 8.71529L568.104 8.72115L568.549 7.96378ZM574.015 13.4297L573.258 13.8752L573.266 13.8885L573.274 13.9014L574.015 13.4297ZM576.141 78.8184V79.697H577.02V78.8184H576.141ZM560.249 78.8184H559.37V79.697H560.249V78.8184ZM560.249 55.3351H561.128V54.4564H560.249V55.3351ZM518.951 55.3351V54.4564H518.072V55.3351H518.951ZM518.951 78.8184V79.697H519.83V78.8184H518.951ZM518.951 39.5447H518.072V40.4234H518.951V39.5447ZM560.249 39.5447V40.4234H561.128V39.5447H560.249ZM560.249 21.7298H561.128V20.8511H560.249V21.7298ZM518.951 21.7298V20.8511H518.072V21.7298H518.951ZM503.262 78.8184H504.141V20.92H503.262H502.383V78.8184H503.262ZM503.262 20.92H504.141C504.141 18.3035 504.777 15.966 506.038 13.8851L505.286 13.4297L504.535 12.9743C503.097 15.3471 502.383 18.0032 502.383 20.92H503.262ZM505.286 13.4297L506.044 13.8752C507.317 11.7096 509.032 9.995 511.198 8.72115L510.752 7.96378L510.307 7.20641C507.884 8.63177 505.954 10.5611 504.529 12.9842L505.286 13.4297ZM510.752 7.96378L511.198 8.72115C513.355 7.45213 515.698 6.81805 518.243 6.81805V5.93936V5.06068C515.389 5.06068 512.738 5.77621 510.307 7.20641L510.752 7.96378ZM518.243 5.93936V6.81805H561.059V5.93936V5.06068H518.243V5.93936ZM561.059 5.93936V6.81805C563.676 6.81805 566.013 7.4541 568.094 8.71523L568.549 7.96378L569.005 7.21233C566.632 5.77423 563.976 5.06068 561.059 5.06068V5.93936ZM568.549 7.96378L568.104 8.72115C570.269 9.99501 571.984 11.7096 573.258 13.8752L574.015 13.4297L574.773 12.9842C573.347 10.5611 571.418 8.63177 568.995 7.20641L568.549 7.96378ZM574.015 13.4297L573.274 13.9014C574.597 15.9804 575.262 18.312 575.262 20.92H576.141H577.02C577.02 17.9947 576.268 15.3328 574.757 12.958L574.015 13.4297ZM576.141 20.92H575.262V78.8184H576.141H577.02V20.92H576.141ZM576.141 78.8184V77.9397H560.249V78.8184V79.697H576.141V78.8184ZM560.249 78.8184H561.128V55.3351H560.249H559.37V78.8184H560.249ZM560.249 55.3351V54.4564H518.951V55.3351V56.2138H560.249V55.3351ZM518.951 55.3351H518.072V78.8184H518.951H519.83V55.3351H518.951ZM518.951 78.8184V77.9397H503.262V78.8184V79.697H518.951V78.8184ZM518.951 39.5447V40.4234H560.249V39.5447V38.666H518.951V39.5447ZM560.249 39.5447H561.128V21.7298H560.249H559.37V39.5447H560.249ZM560.249 21.7298V20.8511H518.951V21.7298V22.6085H560.249V21.7298ZM518.951 21.7298H518.072V39.5447H518.951H519.83V21.7298H518.951ZM587.269 78.8184H586.39V79.697H587.269V78.8184ZM589.293 27.4994L588.542 27.044L589.293 27.4994ZM594.658 22.1347L595.113 22.8861V22.8861L594.658 22.1347ZM634.438 20.1103H635.316V19.2316H634.438V20.1103ZM634.438 35.5971V36.4757H635.316V35.5971H634.438ZM602.756 35.5971V34.7184H601.877V35.5971H602.756ZM602.756 78.8184V79.697H603.634V78.8184H602.756ZM587.269 78.8184H588.147V34.7873H587.269H586.39V78.8184H587.269ZM587.269 34.7873H588.147C588.147 32.3143 588.779 30.0428 590.045 27.9548L589.293 27.4994L588.542 27.044C587.108 29.4097 586.39 31.9968 586.39 34.7873H587.269ZM589.293 27.4994L590.045 27.9548C591.321 25.849 593.008 24.1624 595.113 22.8861L594.658 22.1347L594.203 21.3833C591.855 22.8062 589.965 24.696 588.542 27.044L589.293 27.4994ZM594.658 22.1347L595.113 22.8861C597.198 21.6229 599.502 20.989 602.047 20.989V20.1103V19.2316C599.193 19.2316 596.572 19.9473 594.203 21.3833L594.658 22.1347ZM602.047 20.1103V20.989H634.438V20.1103V19.2316H602.047V20.1103ZM634.438 20.1103H633.559V35.5971H634.438H635.316V20.1103H634.438ZM634.438 35.5971V34.7184H602.756V35.5971V36.4757H634.438V35.5971ZM602.756 35.5971H601.877V78.8184H602.756H603.634V35.5971H602.756ZM602.756 78.8184V77.9397H587.269V78.8184V79.697H602.756V78.8184ZM643.46 71.4292L642.708 71.8847V71.8847L643.46 71.4292ZM643.46 27.4994L642.708 27.044V27.044L643.46 27.4994ZM648.824 22.1347L649.28 22.8861H649.28L648.824 22.1347ZM693.665 22.1347L693.21 22.8861V22.8861L693.665 22.1347ZM698.929 27.4994L698.167 27.9378L698.172 27.9464L698.177 27.9548L698.929 27.4994ZM700.953 57.2583V58.137H701.832V57.2583H700.953ZM656.922 57.2583V56.3796H656.043V57.2583H656.922ZM656.922 63.3316H656.043V64.2103H656.922V63.3316ZM700.953 63.3316H701.832V62.4529H700.953V63.3316ZM700.953 78.8184V79.697H701.832V78.8184H700.953ZM656.922 43.6947H656.043V44.5734H656.922V43.6947ZM685.466 43.6947V44.5734H686.345V43.6947H685.466ZM685.466 35.5971H686.345V34.7184H685.466V35.5971ZM656.922 35.5971V34.7184H656.043V35.5971H656.922ZM656.112 78.8184V77.9397C653.639 77.9397 651.368 77.3079 649.28 76.0425L648.824 76.7939L648.369 77.5454C650.735 78.9792 653.322 79.697 656.112 79.697V78.8184ZM648.824 76.7939L649.28 76.0425C647.174 74.7663 645.487 73.0796 644.211 70.9738L643.46 71.4292L642.708 71.8847C644.131 74.2326 646.021 76.1224 648.369 77.5454L648.824 76.7939ZM643.46 71.4292L644.211 70.9738C642.946 68.8858 642.314 66.6143 642.314 64.1413H641.435H640.557C640.557 66.9319 641.275 69.5189 642.708 71.8847L643.46 71.4292ZM641.435 64.1413H642.314V34.7873H641.435H640.557V64.1413H641.435ZM641.435 34.7873H642.314C642.314 32.3143 642.946 30.0428 644.211 27.9548L643.46 27.4994L642.708 27.044C641.275 29.4097 640.557 31.9968 640.557 34.7873H641.435ZM643.46 27.4994L644.211 27.9548C645.487 25.849 647.174 24.1624 649.28 22.8861L648.824 22.1347L648.369 21.3833C646.021 22.8062 644.131 24.696 642.708 27.044L643.46 27.4994ZM648.824 22.1347L649.28 22.8861C651.368 21.6207 653.639 20.989 656.112 20.989V20.1103V19.2316C653.322 19.2316 650.735 19.9495 648.369 21.3833L648.824 22.1347ZM656.112 20.1103V20.989H686.276V20.1103V19.2316H656.112V20.1103ZM686.276 20.1103V20.989C688.821 20.989 691.126 21.6229 693.21 22.8861L693.665 22.1347L694.121 21.3833C691.751 19.9473 689.13 19.2316 686.276 19.2316V20.1103ZM693.665 22.1347L693.21 22.8861C695.312 24.16 696.96 25.8412 698.167 27.9378L698.929 27.4994L699.69 27.061C698.333 24.7038 696.473 22.8086 694.121 21.3833L693.665 22.1347ZM698.929 27.4994L698.177 27.9548C699.443 30.0428 700.075 32.3143 700.075 34.7873H700.953H701.832C701.832 31.9968 701.114 29.4097 699.68 27.044L698.929 27.4994ZM700.953 34.7873H700.075V57.2583H700.953H701.832V34.7873H700.953ZM700.953 57.2583V56.3796H656.922V57.2583V58.137H700.953V57.2583ZM656.922 57.2583H656.043V63.3316H656.922H657.801V57.2583H656.922ZM656.922 63.3316V64.2103H700.953V63.3316V62.4529H656.922V63.3316ZM700.953 63.3316H700.075V78.8184H700.953H701.832V63.3316H700.953ZM700.953 78.8184V77.9397H656.112V78.8184V79.697H700.953V78.8184ZM656.922 43.6947V44.5734H685.466V43.6947V42.8161H656.922V43.6947ZM685.466 43.6947H686.345V35.5971H685.466H684.588V43.6947H685.466ZM685.466 35.5971V34.7184H656.922V35.5971V36.4757H685.466V35.5971ZM656.922 35.5971H656.043V43.6947H656.922H657.801V35.5971H656.922ZM801.227 78.8184L800.554 79.3833L800.818 79.697H801.227V78.8184ZM780.072 53.6144V52.7357H778.188L779.399 54.1793L780.072 53.6144ZM800.62 53.6144L801.291 53.0465L801.027 52.7357H800.62V53.6144ZM817.423 73.4537H818.301V73.1316L818.093 72.8858L817.423 73.4537ZM817.423 78.8184V79.697H818.301V78.8184H817.423ZM744.645 78.8184H743.766V79.697H744.645V78.8184ZM744.645 6.04058V5.1619H743.766V6.04058H744.645ZM809.932 8.06499L809.477 8.81651L809.487 8.82236L809.932 8.06499ZM815.398 13.5309L814.641 13.9764L814.646 13.9846L814.651 13.9927L815.398 13.5309ZM815.398 47.3387L814.651 46.8769L814.646 46.885L814.641 46.8932L815.398 47.3387ZM809.932 52.8046L809.487 52.0472L809.477 52.0532L809.932 52.8046ZM802.442 54.829V53.9503H802.44L802.442 54.829ZM760.334 54.9302L760.332 54.0516L759.456 54.0537V54.9302H760.334ZM760.334 78.8184V79.697H761.213V78.8184H760.334ZM760.334 39.0386H759.456V39.9173H760.334V39.0386ZM801.632 39.0386V39.9173H802.511V39.0386H801.632ZM801.632 21.7298H802.511V20.8511H801.632V21.7298ZM760.334 21.7298V20.8511H759.456V21.7298H760.334ZM801.227 78.8184L801.9 78.2534L780.745 53.0495L780.072 53.6144L779.399 54.1793L800.554 79.3833L801.227 78.8184ZM780.072 53.6144V54.4931H800.62V53.6144V52.7357H780.072V53.6144ZM800.62 53.6144L799.95 54.1823L816.752 74.0215L817.423 73.4537L818.093 72.8858L801.291 53.0465L800.62 53.6144ZM817.423 73.4537H816.544V78.8184H817.423H818.301V73.4537H817.423ZM817.423 78.8184V77.9397H801.227V78.8184V79.697H817.423V78.8184ZM744.645 78.8184H745.524V6.04058H744.645H743.766V78.8184H744.645ZM744.645 6.04058V6.91927H802.442V6.04058V5.1619H744.645V6.04058ZM802.442 6.04058V6.91927C805.059 6.91927 807.396 7.55532 809.477 8.81644L809.932 8.06499L810.388 7.31355C808.015 5.87545 805.359 5.1619 802.442 5.1619V6.04058ZM809.932 8.06499L809.487 8.82236C811.652 10.0962 813.367 11.8109 814.641 13.9764L815.398 13.5309L816.156 13.0854C814.73 10.6623 812.801 8.73299 810.378 7.30763L809.932 8.06499ZM815.398 13.5309L814.651 13.9927C815.982 16.1481 816.645 18.485 816.645 21.0213H817.524H818.403C818.403 18.1591 817.649 15.5024 816.146 13.0692L815.398 13.5309ZM817.524 21.0213H816.645V39.8483H817.524H818.403V21.0213H817.524ZM817.524 39.8483H816.645C816.645 42.3846 815.982 44.7215 814.651 46.8769L815.398 47.3387L816.146 47.8004C817.649 45.3672 818.403 42.7105 818.403 39.8483H817.524ZM815.398 47.3387L814.641 46.8932C813.367 49.0587 811.652 50.7734 809.487 52.0472L809.932 52.8046L810.378 53.562C812.801 52.1366 814.73 50.2073 816.156 47.7842L815.398 47.3387ZM809.932 52.8046L809.477 52.0532C807.396 53.3143 805.059 53.9503 802.442 53.9503V54.829V55.7077C805.359 55.7077 808.015 54.9942 810.388 53.5561L809.932 52.8046ZM802.442 54.829L802.44 53.9503L760.332 54.0516L760.334 54.9302L760.336 55.8089L802.444 55.7077L802.442 54.829ZM760.334 54.9302H759.456V78.8184H760.334H761.213V54.9302H760.334ZM760.334 78.8184V77.9397H744.645V78.8184V79.697H760.334V78.8184ZM760.334 39.0386V39.9173H801.632V39.0386V38.1599H760.334V39.0386ZM801.632 39.0386H802.511V21.7298H801.632H800.754V39.0386H801.632ZM801.632 21.7298V20.8511H760.334V21.7298V22.6085H801.632V21.7298ZM760.334 21.7298H759.456V39.0386H760.334H761.213V21.7298H760.334ZM827.767 78.8184H826.888V79.697H827.767V78.8184ZM827.767 20.1103V19.2316H826.888V20.1103H827.767ZM843.254 20.1103H844.133V19.2316H843.254V20.1103ZM843.254 78.8184V79.697H844.133V78.8184H843.254ZM827.767 16.4663H826.888V17.345H827.767V16.4663ZM827.767 0.878319V-0.000358582H826.888V0.878319H827.767ZM843.254 0.878319H844.133V-0.000358582H843.254V0.878319ZM843.254 16.4663V17.345H844.133V16.4663H843.254ZM827.767 78.8184H828.646V20.1103H827.767H826.888V78.8184H827.767ZM827.767 20.1103V20.989H843.254V20.1103V19.2316H827.767V20.1103ZM843.254 20.1103H842.375V78.8184H843.254H844.133V20.1103H843.254ZM843.254 78.8184V77.9397H827.767V78.8184V79.697H843.254V78.8184ZM827.767 16.4663H828.646V0.878319H827.767H826.888V16.4663H827.767ZM827.767 0.878319V1.757H843.254V0.878319V-0.000358582H827.767V0.878319ZM843.254 0.878319H842.375V16.4663H843.254H844.133V0.878319H843.254ZM843.254 16.4663V15.5876H827.767V16.4663V17.345H843.254V16.4663ZM859.097 101.998H858.218V102.877H859.097V101.998ZM859.097 86.4099V85.5312H858.218V86.4099H859.097ZM893.917 86.4099V87.2886H894.795V86.4099H893.917ZM893.917 78.8184H894.795V77.9397H893.917V78.8184ZM857.173 76.7939L857.629 76.0425V76.0425L857.173 76.7939ZM851.809 71.4292L852.56 70.9738V70.9738L851.809 71.4292ZM851.809 27.4994L852.56 27.9548V27.9548L851.809 27.4994ZM857.173 22.1347L857.629 22.8861V22.8861L857.173 22.1347ZM902.115 22.1347L901.66 22.8861V22.8861L902.115 22.1347ZM907.379 27.4994L906.617 27.9378L906.622 27.9464L906.627 27.9548L907.379 27.4994ZM907.379 94.71L906.627 94.2546L906.622 94.263L906.617 94.2716L907.379 94.71ZM902.115 99.9735L901.677 99.212L901.668 99.2169L901.66 99.2221L902.115 99.9735ZM865.271 63.3316H864.392V64.2103H865.271V63.3316ZM893.917 63.3316V64.2103H894.795V63.3316H893.917ZM893.917 35.5971H894.795V34.7184H893.917V35.5971ZM865.271 35.5971V34.7184H864.392V35.5971H865.271ZM859.097 101.998H859.975V86.4099H859.097H858.218V101.998H859.097ZM859.097 86.4099V87.2886H893.917V86.4099V85.5312H859.097V86.4099ZM893.917 86.4099H894.795V78.8184H893.917H893.038V86.4099H893.917ZM893.917 78.8184V77.9397H864.562V78.8184V79.697H893.917V78.8184ZM864.562 78.8184V77.9397C862.018 77.9397 859.713 77.3057 857.629 76.0425L857.173 76.7939L856.718 77.5454C859.087 78.9814 861.709 79.697 864.562 79.697V78.8184ZM857.173 76.7939L857.629 76.0425C855.523 74.7663 853.836 73.0796 852.56 70.9738L851.809 71.4292L851.057 71.8847C852.48 74.2326 854.37 76.1224 856.718 77.5454L857.173 76.7939ZM851.809 71.4292L852.56 70.9738C851.295 68.8858 850.663 66.6143 850.663 64.1413H849.784H848.906C848.906 66.9319 849.623 69.5189 851.057 71.8847L851.809 71.4292ZM849.784 64.1413H850.663V34.7873H849.784H848.906V64.1413H849.784ZM849.784 34.7873H850.663C850.663 32.3143 851.295 30.0428 852.56 27.9548L851.809 27.4994L851.057 27.044C849.623 29.4097 848.906 31.9968 848.906 34.7873H849.784ZM851.809 27.4994L852.56 27.9548C853.836 25.849 855.523 24.1624 857.629 22.8861L857.173 22.1347L856.718 21.3833C854.37 22.8062 852.48 24.696 851.057 27.044L851.809 27.4994ZM857.173 22.1347L857.629 22.8861C859.713 21.6229 862.018 20.989 864.562 20.989V20.1103V19.2316C861.709 19.2316 859.087 19.9473 856.718 21.3833L857.173 22.1347ZM864.562 20.1103V20.989H894.726V20.1103V19.2316H864.562V20.1103ZM894.726 20.1103V20.989C897.271 20.989 899.576 21.6229 901.66 22.8861L902.115 22.1347L902.571 21.3833C900.201 19.9473 897.58 19.2316 894.726 19.2316V20.1103ZM902.115 22.1347L901.66 22.8861C903.762 24.16 905.41 25.8412 906.617 27.9378L907.379 27.4994L908.14 27.061C906.783 24.7038 904.923 22.8086 902.571 21.3833L902.115 22.1347ZM907.379 27.4994L906.627 27.9548C907.893 30.0428 908.525 32.3143 908.525 34.7873H909.403H910.282C910.282 31.9968 909.564 29.4097 908.13 27.044L907.379 27.4994ZM909.403 34.7873H908.525V87.3209H909.403H910.282V34.7873H909.403ZM909.403 87.3209H908.525C908.525 89.8657 907.891 92.1703 906.627 94.2546L907.379 94.71L908.13 95.1655C909.566 92.7961 910.282 90.1746 910.282 87.3209H909.403ZM907.379 94.71L906.617 94.2716C905.413 96.3642 903.77 98.0072 901.677 99.212L902.115 99.9735L902.554 100.735C904.915 99.3755 906.781 97.5096 908.14 95.1485L907.379 94.71ZM902.115 99.9735L901.66 99.2221C899.576 100.485 897.271 101.119 894.726 101.119V101.998V102.877C897.58 102.877 900.201 102.161 902.571 100.725L902.115 99.9735ZM894.726 101.998V101.119H859.097V101.998V102.877H894.726V101.998ZM865.271 63.3316V64.2103H893.917V63.3316V62.4529H865.271V63.3316ZM893.917 63.3316H894.795V35.5971H893.917H893.038V63.3316H893.917ZM893.917 35.5971V34.7184H865.271V35.5971V36.4757H893.917V35.5971ZM865.271 35.5971H864.392V63.3316H865.271H866.15V35.5971H865.271ZM920.195 78.8184H919.316V79.697H920.195V78.8184ZM920.195 0.878319V-0.000358582H919.316V0.878319H920.195ZM935.682 0.878319H936.561V-0.000358582H935.682V0.878319ZM935.682 20.1103H934.803V20.989H935.682V20.1103ZM972.324 22.1347L971.868 22.8861V22.8861L972.324 22.1347ZM977.689 27.4994L978.44 27.044L977.689 27.4994ZM979.713 78.8184V79.697H980.592V78.8184H979.713ZM964.226 78.8184H963.348V79.697H964.226V78.8184ZM964.226 35.5971H965.105V34.7184H964.226V35.5971ZM935.682 35.5971V34.7184H934.803V35.5971H935.682ZM935.682 78.8184V79.697H936.561V78.8184H935.682ZM920.195 78.8184H921.074V0.878319H920.195H919.316V78.8184H920.195ZM920.195 0.878319V1.757H935.682V0.878319V-0.000358582H920.195V0.878319ZM935.682 0.878319H934.803V20.1103H935.682H936.561V0.878319H935.682ZM935.682 20.1103V20.989H965.036V20.1103V19.2316H935.682V20.1103ZM965.036 20.1103V20.989C967.509 20.989 969.78 21.6207 971.868 22.8861L972.324 22.1347L972.779 21.3833C970.414 19.9495 967.827 19.2316 965.036 19.2316V20.1103ZM972.324 22.1347L971.868 22.8861C973.974 24.1624 975.661 25.849 976.937 27.9548L977.689 27.4994L978.44 27.044C977.017 24.696 975.127 22.8062 972.779 21.3833L972.324 22.1347ZM977.689 27.4994L976.937 27.9548C978.203 30.0428 978.834 32.3143 978.834 34.7873H979.713H980.592C980.592 31.9968 979.874 29.4097 978.44 27.044L977.689 27.4994ZM979.713 34.7873H978.834V78.8184H979.713H980.592V34.7873H979.713ZM979.713 78.8184V77.9397H964.226V78.8184V79.697H979.713V78.8184ZM964.226 78.8184H965.105V35.5971H964.226H963.348V78.8184H964.226ZM964.226 35.5971V34.7184H935.682V35.5971V36.4757H964.226V35.5971ZM935.682 35.5971H934.803V78.8184H935.682H936.561V35.5971H935.682ZM935.682 78.8184V77.9397H920.195V78.8184V79.697H935.682V78.8184ZM995.095 76.7939L994.64 77.5454V77.5454L995.095 76.7939ZM989.731 71.4292L990.482 70.9738V70.9738L989.731 71.4292ZM987.706 2.70029V1.82162H986.828V2.70029H987.706ZM1003.19 2.70029H1004.07V1.82162H1003.19V2.70029ZM1003.19 20.1103H1002.31V20.989H1003.19V20.1103ZM1024.96 20.1103H1025.83V19.2316H1024.96V20.1103ZM1024.96 35.5971V36.4757H1025.83V35.5971H1024.96ZM1003.19 35.5971V34.7184H1002.31V35.5971H1003.19ZM1003.19 63.3316H1002.31V64.2103H1003.19V63.3316ZM1024.96 63.3316H1025.83V62.4529H1024.96V63.3316ZM1024.96 78.8184V79.697H1025.83V78.8184H1024.96ZM1002.48 78.8184V77.9397C999.94 77.9397 997.635 77.3057 995.551 76.0425L995.095 76.7939L994.64 77.5454C997.009 78.9814 999.631 79.697 1002.48 79.697V78.8184ZM995.095 76.7939L995.551 76.0425C993.445 74.7663 991.758 73.0796 990.482 70.9738L989.731 71.4292L988.979 71.8847C990.402 74.2326 992.292 76.1224 994.64 77.5454L995.095 76.7939ZM989.731 71.4292L990.482 70.9738C989.217 68.8858 988.585 66.6143 988.585 64.1413H987.706H986.828C986.828 66.9319 987.546 69.5189 988.979 71.8847L989.731 71.4292ZM987.706 64.1413H988.585V2.70029H987.706H986.828V64.1413H987.706ZM987.706 2.70029V3.57898H1003.19V2.70029V1.82162H987.706V2.70029ZM1003.19 2.70029H1002.31V20.1103H1003.19H1004.07V2.70029H1003.19ZM1003.19 20.1103V20.989H1024.96V20.1103V19.2316H1003.19V20.1103ZM1024.96 20.1103H1024.08V35.5971H1024.96H1025.83V20.1103H1024.96ZM1024.96 35.5971V34.7184H1003.19V35.5971V36.4757H1024.96V35.5971ZM1003.19 35.5971H1002.31V63.3316H1003.19H1004.07V35.5971H1003.19ZM1003.19 63.3316V64.2103H1024.96V63.3316V62.4529H1003.19V63.3316ZM1024.96 63.3316H1024.08V78.8184H1024.96H1025.83V63.3316H1024.96ZM1024.96 78.8184V77.9397H1002.48V78.8184V79.697H1024.96V78.8184ZM1066.5 78.8184H1065.62V79.697H1066.5V78.8184ZM1066.5 5.93936V5.06068H1065.62V5.93936H1066.5ZM1133.81 5.93936H1134.69V5.06068H1133.81V5.93936ZM1133.81 21.7298V22.6085H1134.69V21.7298H1133.81ZM1082.39 21.7298V20.8511H1081.51V21.7298H1082.39ZM1082.39 34.4836H1081.51V35.3623H1082.39V34.4836ZM1123.79 34.4836H1124.67V33.605H1123.79V34.4836ZM1123.79 50.2741V51.1528H1124.67V50.2741H1123.79ZM1082.39 50.2741V49.3954H1081.51V50.2741H1082.39ZM1082.39 78.8184V79.697H1083.27V78.8184H1082.39ZM1066.5 78.8184H1067.38V5.93936H1066.5H1065.62V78.8184H1066.5ZM1066.5 5.93936V6.81805H1133.81V5.93936V5.06068H1066.5V5.93936ZM1133.81 5.93936H1132.93V21.7298H1133.81H1134.69V5.93936H1133.81ZM1133.81 21.7298V20.8511H1082.39V21.7298V22.6085H1133.81V21.7298ZM1082.39 21.7298H1081.51V34.4836H1082.39H1083.27V21.7298H1082.39ZM1082.39 34.4836V35.3623H1123.79V34.4836V33.605H1082.39V34.4836ZM1123.79 34.4836H1122.91V50.2741H1123.79H1124.67V34.4836H1123.79ZM1123.79 50.2741V49.3954H1082.39V50.2741V51.1528H1123.79V50.2741ZM1082.39 50.2741H1081.51V78.8184H1082.39H1083.27V50.2741H1082.39ZM1082.39 78.8184V77.9397H1066.5V78.8184V79.697H1082.39V78.8184ZM1140.96 71.4292L1140.21 71.8847V71.8847L1140.96 71.4292ZM1140.96 27.4994L1140.21 27.044V27.044L1140.96 27.4994ZM1146.33 22.1347L1146.78 22.8861V22.8861L1146.33 22.1347ZM1191.17 22.1347L1190.71 22.8861V22.8861L1191.17 22.1347ZM1196.43 27.4994L1195.67 27.9378L1195.68 27.9464L1195.68 27.9548L1196.43 27.4994ZM1196.43 71.4292L1195.68 70.9738L1195.68 70.9823L1195.67 70.9908L1196.43 71.4292ZM1154.43 63.3316H1153.55V64.2103H1154.43V63.3316ZM1182.97 63.3316V64.2103H1183.85V63.3316H1182.97ZM1182.97 35.5971H1183.85V34.7184H1182.97V35.5971ZM1154.43 35.5971V34.7184H1153.55V35.5971H1154.43ZM1153.62 78.8184V77.9397C1151.14 77.9397 1148.87 77.3079 1146.78 76.0425L1146.33 76.7939L1145.87 77.5454C1148.24 78.9792 1150.83 79.697 1153.62 79.697V78.8184ZM1146.33 76.7939L1146.78 76.0425C1144.68 74.7663 1142.99 73.0796 1141.72 70.9738L1140.96 71.4292L1140.21 71.8847C1141.64 74.2326 1143.53 76.1224 1145.87 77.5454L1146.33 76.7939ZM1140.96 71.4292L1141.72 70.9738C1140.45 68.8858 1139.82 66.6143 1139.82 64.1413H1138.94H1138.06C1138.06 66.9319 1138.78 69.5189 1140.21 71.8847L1140.96 71.4292ZM1138.94 64.1413H1139.82V34.7873H1138.94H1138.06V64.1413H1138.94ZM1138.94 34.7873H1139.82C1139.82 32.3143 1140.45 30.0428 1141.72 27.9548L1140.96 27.4994L1140.21 27.044C1138.78 29.4097 1138.06 31.9968 1138.06 34.7873H1138.94ZM1140.96 27.4994L1141.72 27.9548C1142.99 25.849 1144.68 24.1624 1146.78 22.8861L1146.33 22.1347L1145.87 21.3833C1143.53 22.8062 1141.64 24.696 1140.21 27.044L1140.96 27.4994ZM1146.33 22.1347L1146.78 22.8861C1148.87 21.6207 1151.14 20.989 1153.62 20.989V20.1103V19.2316C1150.83 19.2316 1148.24 19.9495 1145.87 21.3833L1146.33 22.1347ZM1153.62 20.1103V20.989H1183.78V20.1103V19.2316H1153.62V20.1103ZM1183.78 20.1103V20.989C1186.33 20.989 1188.63 21.6229 1190.71 22.8861L1191.17 22.1347L1191.63 21.3833C1189.26 19.9473 1186.63 19.2316 1183.78 19.2316V20.1103ZM1191.17 22.1347L1190.71 22.8861C1192.82 24.16 1194.46 25.8412 1195.67 27.9378L1196.43 27.4994L1197.19 27.061C1195.84 24.7038 1193.98 22.8086 1191.63 21.3833L1191.17 22.1347ZM1196.43 27.4994L1195.68 27.9548C1196.95 30.0428 1197.58 32.3143 1197.58 34.7873H1198.46H1199.34C1199.34 31.9968 1198.62 29.4097 1197.18 27.044L1196.43 27.4994ZM1198.46 34.7873H1197.58V64.1413H1198.46H1199.34V34.7873H1198.46ZM1198.46 64.1413H1197.58C1197.58 66.6143 1196.95 68.8858 1195.68 70.9738L1196.43 71.4292L1197.18 71.8847C1198.62 69.5189 1199.34 66.9319 1199.34 64.1413H1198.46ZM1196.43 71.4292L1195.67 70.9908C1194.46 73.0874 1192.82 74.7687 1190.71 76.0425L1191.17 76.7939L1191.63 77.5454C1193.98 76.12 1195.84 74.2248 1197.19 71.8677L1196.43 71.4292ZM1191.17 76.7939L1190.71 76.0425C1188.63 77.3057 1186.33 77.9397 1183.78 77.9397V78.8184V79.697C1186.63 79.697 1189.26 78.9814 1191.63 77.5454L1191.17 76.7939ZM1183.78 78.8184V77.9397H1153.62V78.8184V79.697H1183.78V78.8184ZM1154.43 63.3316V64.2103H1182.97V63.3316V62.4529H1154.43V63.3316ZM1182.97 63.3316H1183.85V35.5971H1182.97H1182.09V63.3316H1182.97ZM1182.97 35.5971V34.7184H1154.43V35.5971V36.4757H1182.97V35.5971ZM1154.43 35.5971H1153.55V63.3316H1154.43H1155.31V35.5971H1154.43ZM1206.46 78.8184H1205.58V79.697H1206.46V78.8184ZM1208.48 27.4994L1207.73 27.044L1208.48 27.4994ZM1213.84 22.1347L1214.3 22.8861V22.8861L1213.84 22.1347ZM1253.62 20.1103H1254.5V19.2316H1253.62V20.1103ZM1253.62 35.5971V36.4757H1254.5V35.5971H1253.62ZM1221.94 35.5971V34.7184H1221.06V35.5971H1221.94ZM1221.94 78.8184V79.697H1222.82V78.8184H1221.94ZM1206.46 78.8184H1207.33V34.7873H1206.46H1205.58V78.8184H1206.46ZM1206.46 34.7873H1207.33C1207.33 32.3143 1207.97 30.0428 1209.23 27.9548L1208.48 27.4994L1207.73 27.044C1206.29 29.4097 1205.58 31.9968 1205.58 34.7873H1206.46ZM1208.48 27.4994L1209.23 27.9548C1210.51 25.849 1212.19 24.1624 1214.3 22.8861L1213.84 22.1347L1213.39 21.3833C1211.04 22.8062 1209.15 24.696 1207.73 27.044L1208.48 27.4994ZM1213.84 22.1347L1214.3 22.8861C1216.38 21.6229 1218.69 20.989 1221.23 20.989V20.1103V19.2316C1218.38 19.2316 1215.76 19.9473 1213.39 21.3833L1213.84 22.1347ZM1221.23 20.1103V20.989H1253.62V20.1103V19.2316H1221.23V20.1103ZM1253.62 20.1103H1252.75V35.5971H1253.62H1254.5V20.1103H1253.62ZM1253.62 35.5971V34.7184H1221.94V35.5971V36.4757H1253.62V35.5971ZM1221.94 35.5971H1221.06V78.8184H1221.94H1222.82V35.5971H1221.94ZM1221.94 78.8184V77.9397H1206.46V78.8184V79.697H1221.94V78.8184ZM1319.89 78.8184H1319.01V79.697H1319.89V78.8184ZM1319.89 51.59H1320.77V51.3007L1320.59 51.068L1319.89 51.59ZM1286.18 5.93936V5.06068H1284.44L1285.47 6.46129L1286.18 5.93936ZM1304.91 5.93936L1305.59 5.39223L1305.33 5.06068H1304.91V5.93936ZM1327.78 34.6861L1327.09 35.2332L1327.78 36.0991L1328.47 35.2317L1327.78 34.6861ZM1350.56 5.93936V5.06068H1350.13L1349.87 5.39371L1350.56 5.93936ZM1369.49 5.93936L1370.19 6.46156L1371.23 5.06068H1369.49V5.93936ZM1335.68 51.6912L1334.97 51.169L1334.8 51.4018V51.6912H1335.68ZM1335.68 78.8184V79.697H1336.56V78.8184H1335.68ZM1319.89 78.8184H1320.77V51.59H1319.89H1319.01V78.8184H1319.89ZM1319.89 51.59L1320.59 51.068L1286.89 5.41743L1286.18 5.93936L1285.47 6.46129L1319.18 52.1119L1319.89 51.59ZM1286.18 5.93936V6.81805H1304.91V5.93936V5.06068H1286.18V5.93936ZM1304.91 5.93936L1304.22 6.4865L1327.09 35.2332L1327.78 34.6861L1328.47 34.1389L1305.59 5.39223L1304.91 5.93936ZM1327.78 34.6861L1328.47 35.2317L1351.25 6.48501L1350.56 5.93936L1349.87 5.39371L1327.09 34.1404L1327.78 34.6861ZM1350.56 5.93936V6.81805H1369.49V5.93936V5.06068H1350.56V5.93936ZM1369.49 5.93936L1368.78 5.41717L1334.97 51.169L1335.68 51.6912L1336.38 52.2134L1370.19 6.46156L1369.49 5.93936ZM1335.68 51.6912H1334.8V78.8184H1335.68H1336.56V51.6912H1335.68ZM1335.68 78.8184V77.9397H1319.89V78.8184V79.697H1335.68V78.8184ZM1370.69 71.4292L1369.94 71.8847V71.8847L1370.69 71.4292ZM1370.69 27.4994L1369.94 27.044V27.044L1370.69 27.4994ZM1376.05 22.1347L1376.51 22.8861V22.8861L1376.05 22.1347ZM1420.89 22.1347L1420.44 22.8861V22.8861L1420.89 22.1347ZM1426.16 27.4994L1425.4 27.9378L1425.4 27.9464L1425.41 27.9548L1426.16 27.4994ZM1426.16 71.4292L1425.41 70.9738L1425.4 70.9823L1425.4 70.9908L1426.16 71.4292ZM1384.15 63.3316H1383.27V64.2103H1384.15V63.3316ZM1412.69 63.3316V64.2103H1413.57V63.3316H1412.69ZM1412.69 35.5971H1413.57V34.7184H1412.69V35.5971ZM1384.15 35.5971V34.7184H1383.27V35.5971H1384.15ZM1383.34 78.8184V77.9397C1380.87 77.9397 1378.6 77.3079 1376.51 76.0425L1376.05 76.7939L1375.6 77.5454C1377.96 78.9792 1380.55 79.697 1383.34 79.697V78.8184ZM1376.05 76.7939L1376.51 76.0425C1374.4 74.7663 1372.72 73.0796 1371.44 70.9738L1370.69 71.4292L1369.94 71.8847C1371.36 74.2326 1373.25 76.1224 1375.6 77.5454L1376.05 76.7939ZM1370.69 71.4292L1371.44 70.9738C1370.17 68.8858 1369.54 66.6143 1369.54 64.1413H1368.66H1367.78C1367.78 66.9319 1368.5 69.5189 1369.94 71.8847L1370.69 71.4292ZM1368.66 64.1413H1369.54V34.7873H1368.66H1367.78V64.1413H1368.66ZM1368.66 34.7873H1369.54C1369.54 32.3143 1370.17 30.0428 1371.44 27.9548L1370.69 27.4994L1369.94 27.044C1368.5 29.4097 1367.78 31.9968 1367.78 34.7873H1368.66ZM1370.69 27.4994L1371.44 27.9548C1372.72 25.849 1374.4 24.1624 1376.51 22.8861L1376.05 22.1347L1375.6 21.3833C1373.25 22.8062 1371.36 24.696 1369.94 27.044L1370.69 27.4994ZM1376.05 22.1347L1376.51 22.8861C1378.6 21.6207 1380.87 20.989 1383.34 20.989V20.1103V19.2316C1380.55 19.2316 1377.96 19.9495 1375.6 21.3833L1376.05 22.1347ZM1383.34 20.1103V20.989H1413.5V20.1103V19.2316H1383.34V20.1103ZM1413.5 20.1103V20.989C1416.05 20.989 1418.35 21.6229 1420.44 22.8861L1420.89 22.1347L1421.35 21.3833C1418.98 19.9473 1416.36 19.2316 1413.5 19.2316V20.1103ZM1420.89 22.1347L1420.44 22.8861C1422.54 24.16 1424.19 25.8412 1425.4 27.9378L1426.16 27.4994L1426.92 27.061C1425.56 24.7038 1423.7 22.8086 1421.35 21.3833L1420.89 22.1347ZM1426.16 27.4994L1425.41 27.9548C1426.67 30.0428 1427.3 32.3143 1427.3 34.7873H1428.18H1429.06C1429.06 31.9968 1428.34 29.4097 1426.91 27.044L1426.16 27.4994ZM1428.18 34.7873H1427.3V64.1413H1428.18H1429.06V34.7873H1428.18ZM1428.18 64.1413H1427.3C1427.3 66.6143 1426.67 68.8858 1425.41 70.9738L1426.16 71.4292L1426.91 71.8847C1428.34 69.5189 1429.06 66.9319 1429.06 64.1413H1428.18ZM1426.16 71.4292L1425.4 70.9908C1424.19 73.0874 1422.54 74.7687 1420.44 76.0425L1420.89 76.7939L1421.35 77.5454C1423.7 76.12 1425.56 74.2248 1426.92 71.8677L1426.16 71.4292ZM1420.89 76.7939L1420.44 76.0425C1418.35 77.3057 1416.05 77.9397 1413.5 77.9397V78.8184V79.697C1416.36 79.697 1418.98 78.9814 1421.35 77.5454L1420.89 76.7939ZM1413.5 78.8184V77.9397H1383.34V78.8184V79.697H1413.5V78.8184ZM1384.15 63.3316V64.2103H1412.69V63.3316V62.4529H1384.15V63.3316ZM1412.69 63.3316H1413.57V35.5971H1412.69H1411.82V63.3316H1412.69ZM1412.69 35.5971V34.7184H1384.15V35.5971V36.4757H1412.69V35.5971ZM1384.15 35.5971H1383.27V63.3316H1384.15H1385.03V35.5971H1384.15ZM1443.47 76.7939L1443.01 77.5454V77.5454L1443.47 76.7939ZM1438.1 71.4292L1437.34 71.8677L1437.35 71.8762L1437.35 71.8847L1438.1 71.4292ZM1436.18 20.1103V19.2316H1435.3V20.1103H1436.18ZM1451.67 20.1103H1452.55V19.2316H1451.67V20.1103ZM1451.67 63.3316H1450.79V64.2103H1451.67V63.3316ZM1480.21 63.3316V64.2103H1481.09V63.3316H1480.21ZM1480.21 20.1103V19.2316H1479.33V20.1103H1480.21ZM1495.7 20.1103H1496.58V19.2316H1495.7V20.1103ZM1493.68 71.4292L1492.92 70.9738L1492.92 70.9823L1492.91 70.9908L1493.68 71.4292ZM1488.41 76.7939L1487.96 76.0425V76.0425L1488.41 76.7939ZM1450.86 78.8184V77.9397C1448.31 77.9397 1446.01 77.3057 1443.93 76.0425L1443.47 76.7939L1443.01 77.5454C1445.38 78.9814 1448.01 79.697 1450.86 79.697V78.8184ZM1443.47 76.7939L1443.93 76.0425C1441.82 74.7663 1440.13 73.0796 1438.86 70.9738L1438.1 71.4292L1437.35 71.8847C1438.78 74.2326 1440.67 76.1224 1443.01 77.5454L1443.47 76.7939ZM1438.1 71.4292L1438.87 70.9908C1437.66 68.9007 1437.06 66.6231 1437.06 64.1413H1436.18H1435.3C1435.3 66.9231 1435.98 69.5041 1437.34 71.8677L1438.1 71.4292ZM1436.18 64.1413H1437.06V20.1103H1436.18H1435.3V64.1413H1436.18ZM1436.18 20.1103V20.989H1451.67V20.1103V19.2316H1436.18V20.1103ZM1451.67 20.1103H1450.79V63.3316H1451.67H1452.55V20.1103H1451.67ZM1451.67 63.3316V64.2103H1480.21V63.3316V62.4529H1451.67V63.3316ZM1480.21 63.3316H1481.09V20.1103H1480.21H1479.33V63.3316H1480.21ZM1480.21 20.1103V20.989H1495.7V20.1103V19.2316H1480.21V20.1103ZM1495.7 20.1103H1494.82V64.1413H1495.7H1496.58V20.1103H1495.7ZM1495.7 64.1413H1494.82C1494.82 66.6143 1494.19 68.8858 1492.92 70.9738L1493.68 71.4292L1494.43 71.8847C1495.86 69.5189 1496.58 66.9319 1496.58 64.1413H1495.7ZM1493.68 71.4292L1492.91 70.9908C1491.71 73.0874 1490.06 74.7687 1487.96 76.0425L1488.41 76.7939L1488.87 77.5454C1491.22 76.12 1493.08 74.2248 1494.44 71.8677L1493.68 71.4292ZM1488.41 76.7939L1487.96 76.0425C1485.87 77.3057 1483.57 77.9397 1481.02 77.9397V78.8184V79.697C1483.88 79.697 1486.5 78.9814 1488.87 77.5454L1488.41 76.7939ZM1481.02 78.8184V77.9397H1450.86V78.8184V79.697H1481.02V78.8184Z" fill="white" mask="url(#path-1-outside-1_2419_864)"/>
</g>
</svg>
