<svg width="1440" height="73" viewBox="0 0 1440 73" fill="none" xmlns="http://www.w3.org/2000/svg">
<mask id="path-1-outside-1_2028_1980" maskUnits="userSpaceOnUse" x="-27" y="-0.183594" width="1495" height="115" fill="black">
<rect fill="white" x="-27" y="-0.183594" width="1495" height="115"/>
<path d="M-25.3186 89.8164V6.87509H40.4585C43.6072 6.87509 46.4487 7.64307 48.983 9.17901C51.5941 10.715 53.6676 12.7885 55.2036 15.3996C56.8163 17.9339 57.6227 20.7754 57.6227 23.9241V72.7674C57.6227 75.8393 56.8163 78.6808 55.2036 81.2919C53.6676 83.903 51.5941 85.9765 48.983 87.5125C46.4487 89.0484 43.6072 89.8164 40.4585 89.8164H-25.3186ZM-7.57839 71.8458H39.5369V24.8457H-7.57839V71.8458ZM70.0621 89.8164V39.706C70.0621 36.7109 70.8301 33.9462 72.366 31.4119C73.902 28.8776 75.9371 26.8424 78.4714 25.3065C81.0057 23.7705 83.8088 23.0026 86.8807 23.0026H123.744V40.6276H87.6871V89.8164H70.0621ZM140.144 113.777V96.037H179.771V89.8164H146.364C143.292 89.8164 140.489 89.0484 137.955 87.5125C135.421 85.9765 133.386 83.9414 131.85 81.4071C130.314 78.8728 129.546 76.108 129.546 73.1129V23.233H147.171V72.1914H179.771V23.233H197.396V97.0738C197.396 100.146 196.628 102.949 195.092 105.483C193.633 108.017 191.636 110.014 189.102 111.473C186.568 113.009 183.765 113.777 180.693 113.777H140.144ZM246.681 89.8164V23.0026H264.306V89.8164H246.681ZM246.681 18.8555V1.11528H264.306V18.8555H246.681ZM290.831 89.8164C287.836 89.8164 285.071 89.0484 282.537 87.5125C280.003 85.9765 277.968 83.9414 276.432 81.4071C274.896 78.8728 274.128 76.108 274.128 73.1129V39.706C274.128 36.7109 274.896 33.9462 276.432 31.4119C277.968 28.8776 280.003 26.8424 282.537 25.3065C285.071 23.7705 287.836 23.0026 290.831 23.0026H341.748V40.6276H291.753V72.1914H341.863V89.8164H290.831ZM368.004 89.8164C365.009 89.8164 362.244 89.0484 359.71 87.5125C357.175 85.9765 355.14 83.9414 353.604 81.4071C352.068 78.8728 351.3 76.108 351.3 73.1129V39.706C351.3 36.7109 352.068 33.9462 353.604 31.4119C355.14 28.8776 357.175 26.8424 359.71 25.3065C362.244 23.7705 365.009 23.0026 368.004 23.0026H402.332C405.404 23.0026 408.207 23.7705 410.742 25.3065C413.276 26.8424 415.273 28.8776 416.732 31.4119C418.268 33.9462 419.036 36.7109 419.036 39.706V65.2796H368.925V72.1914H419.036V89.8164H368.004ZM368.925 49.8433H401.411V40.6276H368.925V49.8433ZM469.106 89.8164V6.87509H531.772C534.844 6.87509 537.647 7.64307 540.182 9.17901C542.793 10.715 544.866 12.7885 546.402 15.3996C548.015 17.9339 548.821 20.7754 548.821 23.9241V39.4756C548.821 40.474 548.745 41.434 548.591 42.3555C548.514 43.2003 548.322 44.0067 548.015 44.7747C549.167 46.2338 550.127 47.9234 550.895 49.8433C551.663 51.7632 552.047 53.6832 552.047 55.6031V72.7674C552.047 75.8393 551.241 78.6808 549.628 81.2919C548.092 83.903 546.018 85.9765 543.407 87.5125C540.873 89.0484 538.031 89.8164 534.883 89.8164H469.106ZM486.961 71.8458H533.961V56.6399H486.961V71.8458ZM486.961 38.6693H530.736V24.8457H486.961V38.6693ZM580.85 89.8164C577.778 89.8164 574.975 89.0484 572.44 87.5125C569.906 85.9765 567.871 83.9414 566.335 81.4071C564.876 78.8728 564.146 76.108 564.146 73.1129V47.5394H614.256V40.6276H564.146V23.0026H615.178C618.25 23.0026 621.053 23.7705 623.587 25.3065C626.122 26.8424 628.118 28.8776 629.578 31.4119C631.114 33.9462 631.881 36.7109 631.881 39.706V89.8164H580.85ZM581.771 72.1914H614.256V62.9757H581.771V72.1914ZM657.797 89.8164C654.802 89.8164 652.037 89.0484 649.503 87.5125C646.969 85.9765 644.933 83.9414 643.398 81.4071C641.862 78.8728 641.094 76.108 641.094 73.1129V1.00008H658.834V72.1914H672.312V89.8164H657.797ZM696.839 89.8164C693.767 89.8164 690.964 89.0484 688.429 87.5125C685.895 85.9765 683.86 83.9414 682.324 81.4071C680.788 78.8728 680.02 76.108 680.02 73.1129V3.18881H697.645V23.0026H722.412V40.6276H697.645V72.1914H722.412V89.8164H696.839ZM731.878 89.8164V23.0026H749.503V89.8164H731.878ZM731.878 18.8555V1.11528H749.503V18.8555H731.878ZM776.028 89.8164C773.033 89.8164 770.268 89.0484 767.734 87.5125C765.2 85.9765 763.164 83.9414 761.628 81.4071C760.093 78.8728 759.325 76.108 759.325 73.1129V39.706C759.325 36.7109 760.093 33.9462 761.628 31.4119C763.164 28.8776 765.2 26.8424 767.734 25.3065C770.268 23.7705 773.033 23.0026 776.028 23.0026H826.945V40.6276H776.95V72.1914H827.06V89.8164H776.028ZM893.94 89.8164C890.869 89.8164 888.027 89.0484 885.416 87.5125C882.805 85.9765 880.731 83.903 879.195 81.2919C877.659 78.6808 876.891 75.8393 876.891 72.7674V65.0492H894.747V71.8458H941.747V57.3311H893.94C890.869 57.3311 888.027 56.5631 885.416 55.0271C882.805 53.4912 880.731 51.456 879.195 48.9217C877.659 46.3106 876.891 43.4307 876.891 40.282V23.9241C876.891 20.7754 877.659 17.9339 879.195 15.3996C880.731 12.7885 882.805 10.715 885.416 9.17901C888.027 7.64307 890.869 6.87509 893.94 6.87509H942.784C945.856 6.87509 948.659 7.64307 951.193 9.17901C953.804 10.715 955.878 12.7885 957.414 15.3996C959.026 17.9339 959.833 20.7754 959.833 23.9241V31.6423H941.747V24.8457H894.747V39.3604H942.784C945.856 39.3604 948.659 40.1284 951.193 41.6644C953.804 43.2003 955.878 45.2738 957.414 47.885C959.026 50.4193 959.833 53.2608 959.833 56.4095V72.7674C959.833 75.8393 959.026 78.6808 957.414 81.2919C955.878 83.903 953.804 85.9765 951.193 87.5125C948.659 89.0484 945.856 89.8164 942.784 89.8164H893.94ZM988.646 89.8164C985.651 89.8164 982.886 89.0484 980.352 87.5125C977.818 85.9765 975.783 83.9414 974.247 81.4071C972.711 78.8728 971.943 76.108 971.943 73.1129V39.706C971.943 36.7109 972.711 33.9462 974.247 31.4119C975.783 28.8776 977.818 26.8424 980.352 25.3065C982.886 23.7705 985.651 23.0026 988.646 23.0026H1022.97C1026.05 23.0026 1028.85 23.7705 1031.38 25.3065C1033.92 26.8424 1035.92 28.8776 1037.37 31.4119C1038.91 33.9462 1039.68 36.7109 1039.68 39.706V73.1129C1039.68 76.108 1038.91 78.8728 1037.37 81.4071C1035.92 83.9414 1033.92 85.9765 1031.38 87.5125C1028.85 89.0484 1026.05 89.8164 1022.97 89.8164H988.646ZM989.568 72.1914H1022.05V40.6276H989.568V72.1914ZM1065.48 89.8164C1062.49 89.8164 1059.72 89.0484 1057.19 87.5125C1054.66 85.9765 1052.62 83.9414 1051.08 81.4071C1049.55 78.8728 1048.78 76.108 1048.78 73.1129V1.00008H1066.52V72.1914H1080V89.8164H1065.48ZM1105.65 89.8164C1102.58 89.8164 1099.77 89.0484 1097.24 87.5125C1094.7 85.9765 1092.67 83.9414 1091.13 81.4071C1089.67 78.8728 1088.94 76.108 1088.94 73.1129V23.0026H1106.57V72.1914H1139.05V23.0026H1156.68V73.1129C1156.68 76.108 1155.91 78.8728 1154.38 81.4071C1152.92 83.9414 1150.92 85.9765 1148.39 87.5125C1145.85 89.0484 1143.05 89.8164 1139.98 89.8164H1105.65ZM1183.05 89.8164C1179.98 89.8164 1177.17 89.0484 1174.64 87.5125C1172.1 85.9765 1170.07 83.9414 1168.53 81.4071C1167 78.8728 1166.23 76.108 1166.23 73.1129V3.18881H1183.85V23.0026H1208.62V40.6276H1183.85V72.1914H1208.62V89.8164H1183.05ZM1218.09 89.8164V23.0026H1235.71V89.8164H1218.09ZM1218.09 18.8555V1.11528H1235.71V18.8555H1218.09ZM1261 89.8164C1258 89.8164 1255.24 89.0484 1252.71 87.5125C1250.17 85.9765 1248.14 83.9414 1246.6 81.4071C1245.06 78.8728 1244.3 76.108 1244.3 73.1129V39.706C1244.3 36.7109 1245.06 33.9462 1246.6 31.4119C1248.14 28.8776 1250.17 26.8424 1252.71 25.3065C1255.24 23.7705 1258 23.0026 1261 23.0026H1295.33C1298.4 23.0026 1301.2 23.7705 1303.74 25.3065C1306.27 26.8424 1308.27 28.8776 1309.73 31.4119C1311.26 33.9462 1312.03 36.7109 1312.03 39.706V73.1129C1312.03 76.108 1311.26 78.8728 1309.73 81.4071C1308.27 83.9414 1306.27 85.9765 1303.74 87.5125C1301.2 89.0484 1298.4 89.8164 1295.33 89.8164H1261ZM1261.92 72.1914H1294.41V40.6276H1261.92V72.1914ZM1321.14 89.8164V23.0026H1372.17C1375.24 23.0026 1378.05 23.7705 1380.58 25.3065C1383.12 26.8424 1385.11 28.8776 1386.57 31.4119C1388.11 33.9462 1388.87 36.7109 1388.87 39.706V89.8164H1371.25V40.6276H1338.76V89.8164H1321.14ZM1415.11 89.8164C1412.12 89.8164 1409.35 89.0484 1406.82 87.5125C1404.28 85.9765 1402.25 83.9414 1400.71 81.4071C1399.18 78.8728 1398.41 76.108 1398.41 73.1129V69.7723H1416.03V72.1914H1448.52V65.2796H1415.11C1412.12 65.2796 1409.35 64.5116 1406.82 62.9757C1404.28 61.4397 1402.25 59.4046 1400.71 56.8703C1399.18 54.336 1398.41 51.5712 1398.41 48.5761V39.706C1398.41 36.7109 1399.18 33.9462 1400.71 31.4119C1402.25 28.8776 1404.28 26.8424 1406.82 25.3065C1409.35 23.7705 1412.12 23.0026 1415.11 23.0026H1449.44C1452.51 23.0026 1455.32 23.7705 1457.85 25.3065C1460.38 26.8424 1462.42 28.8776 1463.95 31.4119C1465.49 33.9462 1466.26 36.7109 1466.26 39.706V43.0467H1448.52V40.6276H1416.03V47.5394H1449.44C1452.51 47.5394 1455.32 48.3074 1457.85 49.8433C1460.38 51.3793 1462.42 53.4144 1463.95 55.9487C1465.49 58.483 1466.26 61.2477 1466.26 64.2428V73.1129C1466.26 76.108 1465.49 78.8728 1463.95 81.4071C1462.42 83.9414 1460.38 85.9765 1457.85 87.5125C1455.32 89.0484 1452.51 89.8164 1449.44 89.8164H1415.11Z"/>
</mask>
<path d="M-25.3186 89.8164H-26.3186V90.8164H-25.3186V89.8164ZM-25.3186 6.87509V5.87509H-26.3186V6.87509H-25.3186ZM48.983 9.17902L48.4646 10.0343L48.476 10.0409L48.983 9.17902ZM55.2036 15.3996L54.3416 15.9066L54.3505 15.9217L54.3599 15.9365L55.2036 15.3996ZM55.2036 81.2919L54.3528 80.7664L54.3471 80.7756L54.3416 80.7849L55.2036 81.2919ZM48.983 87.5125L48.4759 86.6505L48.4647 86.6573L48.983 87.5125ZM-7.57839 71.8458H-8.57839V72.8458H-7.57839V71.8458ZM39.5369 71.8458V72.8458H40.5369V71.8458H39.5369ZM39.5369 24.8457H40.5369V23.8457H39.5369V24.8457ZM-7.57839 24.8457V23.8457H-8.57839V24.8457H-7.57839ZM-25.3186 89.8164H-24.3186V6.87509H-25.3186H-26.3186V89.8164H-25.3186ZM-25.3186 6.87509V7.87509H40.4585V6.87509V5.87509H-25.3186V6.87509ZM40.4585 6.87509V7.87509C43.4363 7.87509 46.0965 8.59897 48.4647 10.0342L48.983 9.17902L49.5013 8.32381C46.8008 6.68716 43.778 5.87509 40.4585 5.87509V6.87509ZM48.983 9.17902L48.476 10.0409C50.9405 11.4907 52.8919 13.4421 54.3416 15.9066L55.2036 15.3996L56.0655 14.8926C54.4434 12.1349 52.2477 9.93924 49.49 8.31708L48.983 9.17902ZM55.2036 15.3996L54.3599 15.9365C55.8655 18.3024 56.6227 20.956 56.6227 23.9241H57.6227H58.6227C58.6227 20.5949 57.7671 17.5654 56.0472 14.8627L55.2036 15.3996ZM57.6227 23.9241H56.6227V72.7674H57.6227H58.6227V23.9241H57.6227ZM57.6227 72.7674H56.6227C56.6227 75.6538 55.8679 78.3134 54.3528 80.7664L55.2036 81.2919L56.0544 81.8174C57.7648 79.0482 58.6227 76.0247 58.6227 72.7674H57.6227ZM55.2036 81.2919L54.3416 80.7849C52.8919 83.2494 50.9405 85.2008 48.476 86.6505L48.983 87.5125L49.49 88.3744C52.2477 86.7523 54.4434 84.5566 56.0655 81.7989L55.2036 81.2919ZM48.983 87.5125L48.4647 86.6573C46.0965 88.0925 43.4363 88.8164 40.4585 88.8164V89.8164V90.8164C43.778 90.8164 46.8008 90.0043 49.5013 88.3677L48.983 87.5125ZM40.4585 89.8164V88.8164H-25.3186V89.8164V90.8164H40.4585V89.8164ZM-7.57839 71.8458V72.8458H39.5369V71.8458V70.8458H-7.57839V71.8458ZM39.5369 71.8458H40.5369V24.8457H39.5369H38.5369V71.8458H39.5369ZM39.5369 24.8457V23.8457H-7.57839V24.8457V25.8457H39.5369V24.8457ZM-7.57839 24.8457H-8.57839V71.8458H-7.57839H-6.57839V24.8457H-7.57839ZM70.0621 89.8164H69.0621V90.8164H70.0621V89.8164ZM72.366 31.4119L71.5108 30.8936L72.366 31.4119ZM78.4714 25.3065L78.9897 26.1617V26.1617L78.4714 25.3065ZM123.744 23.0026H124.744V22.0026H123.744V23.0026ZM123.744 40.6276V41.6276H124.744V40.6276H123.744ZM87.6871 40.6276V39.6276H86.6871V40.6276H87.6871ZM87.6871 89.8164V90.8164H88.6871V89.8164H87.6871ZM70.0621 89.8164H71.0621V39.706H70.0621H69.0621V89.8164H70.0621ZM70.0621 39.706H71.0621C71.0621 36.8916 71.781 34.3065 73.2212 31.9302L72.366 31.4119L71.5108 30.8936C69.8791 33.586 69.0621 36.5302 69.0621 39.706H70.0621ZM72.366 31.4119L73.2212 31.9302C74.6736 29.5337 76.5932 27.6141 78.9897 26.1617L78.4714 25.3065L77.9531 24.4513C75.281 26.0708 73.1303 28.2215 71.5108 30.8936L72.366 31.4119ZM78.4714 25.3065L78.9897 26.1617C81.3619 24.724 83.9846 24.0026 86.8807 24.0026V23.0026V22.0026C83.6331 22.0026 80.6496 22.8171 77.9531 24.4513L78.4714 25.3065ZM86.8807 23.0026V24.0026H123.744V23.0026V22.0026H86.8807V23.0026ZM123.744 23.0026H122.744V40.6276H123.744H124.744V23.0026H123.744ZM123.744 40.6276V39.6276H87.6871V40.6276V41.6276H123.744V40.6276ZM87.6871 40.6276H86.6871V89.8164H87.6871H88.6871V40.6276H87.6871ZM87.6871 89.8164V88.8164H70.0621V89.8164V90.8164H87.6871V89.8164ZM140.144 113.777H139.144V114.777H140.144V113.777ZM140.144 96.037V95.037H139.144V96.037H140.144ZM179.771 96.037V97.037H180.771V96.037H179.771ZM179.771 89.8164H180.771V88.8164H179.771V89.8164ZM131.85 81.4071L132.705 80.8888V80.8888L131.85 81.4071ZM129.546 23.233V22.233H128.546V23.233H129.546ZM147.171 23.233H148.171V22.233H147.171V23.233ZM147.171 72.1914H146.171V73.1914H147.171V72.1914ZM179.771 72.1914V73.1914H180.771V72.1914H179.771ZM179.771 23.233V22.233H178.771V23.233H179.771ZM197.396 23.233H198.396V22.233H197.396V23.233ZM195.092 105.483L194.237 104.965L194.231 104.974L194.226 104.984L195.092 105.483ZM189.102 111.473L188.603 110.607L188.593 110.612L188.584 110.618L189.102 111.473ZM140.144 113.777H141.144V96.037H140.144H139.144V113.777H140.144ZM140.144 96.037V97.037H179.771V96.037V95.037H140.144V96.037ZM179.771 96.037H180.771V89.8164H179.771H178.771V96.037H179.771ZM179.771 89.8164V88.8164H146.364V89.8164V90.8164H179.771V89.8164ZM146.364 89.8164V88.8164C143.468 88.8164 140.845 88.0949 138.473 86.6573L137.955 87.5125L137.437 88.3677C140.133 90.0019 143.117 90.8164 146.364 90.8164V89.8164ZM137.955 87.5125L138.473 86.6573C136.077 85.2048 134.157 83.2853 132.705 80.8888L131.85 81.4071L130.994 81.9254C132.614 84.5975 134.765 86.7482 137.437 88.3677L137.955 87.5125ZM131.85 81.4071L132.705 80.8888C131.265 78.5125 130.546 75.9274 130.546 73.1129H129.546H128.546C128.546 76.2887 129.363 79.233 130.994 81.9254L131.85 81.4071ZM129.546 73.1129H130.546V23.233H129.546H128.546V73.1129H129.546ZM129.546 23.233V24.233H147.171V23.233V22.233H129.546V23.233ZM147.171 23.233H146.171V72.1914H147.171H148.171V23.233H147.171ZM147.171 72.1914V73.1914H179.771V72.1914V71.1914H147.171V72.1914ZM179.771 72.1914H180.771V23.233H179.771H178.771V72.1914H179.771ZM179.771 23.233V24.233H197.396V23.233V22.233H179.771V23.233ZM197.396 23.233H196.396V97.0738H197.396H198.396V23.233H197.396ZM197.396 97.0738H196.396C196.396 99.9699 195.675 102.593 194.237 104.965L195.092 105.483L195.948 106.001C197.582 103.305 198.396 100.321 198.396 97.0738H197.396ZM195.092 105.483L194.226 104.984C192.855 107.366 190.985 109.236 188.603 110.607L189.102 111.473L189.601 112.34C192.288 110.793 194.412 108.669 195.959 105.982L195.092 105.483ZM189.102 111.473L188.584 110.618C186.212 112.056 183.589 112.777 180.693 112.777V113.777V114.777C183.94 114.777 186.924 113.963 189.62 112.329L189.102 111.473ZM180.693 113.777V112.777H140.144V113.777V114.777H180.693V113.777ZM246.681 89.8164H245.681V90.8164H246.681V89.8164ZM246.681 23.0026V22.0026H245.681V23.0026H246.681ZM264.306 23.0026H265.306V22.0026H264.306V23.0026ZM264.306 89.8164V90.8164H265.306V89.8164H264.306ZM246.681 18.8555H245.681V19.8555H246.681V18.8555ZM246.681 1.11528V0.11528H245.681V1.11528H246.681ZM264.306 1.11528H265.306V0.11528H264.306V1.11528ZM264.306 18.8555V19.8555H265.306V18.8555H264.306ZM246.681 89.8164H247.681V23.0026H246.681H245.681V89.8164H246.681ZM246.681 23.0026V24.0026H264.306V23.0026V22.0026H246.681V23.0026ZM264.306 23.0026H263.306V89.8164H264.306H265.306V23.0026H264.306ZM264.306 89.8164V88.8164H246.681V89.8164V90.8164H264.306V89.8164ZM246.681 18.8555H247.681V1.11528H246.681H245.681V18.8555H246.681ZM246.681 1.11528V2.11528H264.306V1.11528V0.11528H246.681V1.11528ZM264.306 1.11528H263.306V18.8555H264.306H265.306V1.11528H264.306ZM264.306 18.8555V17.8555H246.681V18.8555V19.8555H264.306V18.8555ZM276.432 81.4071L275.577 81.9254V81.9254L276.432 81.4071ZM276.432 31.4119L275.577 30.8936V30.8936L276.432 31.4119ZM282.537 25.3065L283.055 26.1617V26.1617L282.537 25.3065ZM341.748 23.0026H342.748V22.0026H341.748V23.0026ZM341.748 40.6276V41.6276H342.748V40.6276H341.748ZM291.753 40.6276V39.6276H290.753V40.6276H291.753ZM291.753 72.1914H290.753V73.1914H291.753V72.1914ZM341.863 72.1914H342.863V71.1914H341.863V72.1914ZM341.863 89.8164V90.8164H342.863V89.8164H341.863ZM290.831 89.8164V88.8164C288.017 88.8164 285.432 88.0975 283.055 86.6573L282.537 87.5125L282.019 88.3677C284.711 89.9994 287.655 90.8164 290.831 90.8164V89.8164ZM282.537 87.5125L283.055 86.6573C280.659 85.2048 278.739 83.2853 277.287 80.8888L276.432 81.4071L275.577 81.9254C277.196 84.5975 279.347 86.7482 282.019 88.3677L282.537 87.5125ZM276.432 81.4071L277.287 80.8888C275.847 78.5125 275.128 75.9274 275.128 73.1129H274.128H273.128C273.128 76.2887 273.945 79.233 275.577 81.9254L276.432 81.4071ZM274.128 73.1129H275.128V39.706H274.128H273.128V73.1129H274.128ZM274.128 39.706H275.128C275.128 36.8916 275.847 34.3065 277.287 31.9302L276.432 31.4119L275.577 30.8936C273.945 33.586 273.128 36.5302 273.128 39.706H274.128ZM276.432 31.4119L277.287 31.9302C278.739 29.5337 280.659 27.6141 283.055 26.1617L282.537 25.3065L282.019 24.4513C279.347 26.0708 277.196 28.2215 275.577 30.8936L276.432 31.4119ZM282.537 25.3065L283.055 26.1617C285.432 24.7215 288.017 24.0026 290.831 24.0026V23.0026V22.0026C287.655 22.0026 284.711 22.8196 282.019 24.4513L282.537 25.3065ZM290.831 23.0026V24.0026H341.748V23.0026V22.0026H290.831V23.0026ZM341.748 23.0026H340.748V40.6276H341.748H342.748V23.0026H341.748ZM341.748 40.6276V39.6276H291.753V40.6276V41.6276H341.748V40.6276ZM291.753 40.6276H290.753V72.1914H291.753H292.753V40.6276H291.753ZM291.753 72.1914V73.1914H341.863V72.1914V71.1914H291.753V72.1914ZM341.863 72.1914H340.863V89.8164H341.863H342.863V72.1914H341.863ZM341.863 89.8164V88.8164H290.831V89.8164V90.8164H341.863V89.8164ZM353.604 81.4071L352.749 81.9254V81.9254L353.604 81.4071ZM353.604 31.4119L352.749 30.8936V30.8936L353.604 31.4119ZM359.71 25.3065L360.228 26.1617V26.1617L359.71 25.3065ZM410.742 25.3065L410.223 26.1617H410.223L410.742 25.3065ZM416.732 31.4119L415.865 31.9109L415.871 31.9206L415.877 31.9302L416.732 31.4119ZM419.036 65.2796V66.2796H420.036V65.2796H419.036ZM368.925 65.2796V64.2796H367.925V65.2796H368.925ZM368.925 72.1914H367.925V73.1914H368.925V72.1914ZM419.036 72.1914H420.036V71.1914H419.036V72.1914ZM419.036 89.8164V90.8164H420.036V89.8164H419.036ZM368.925 49.8433H367.925V50.8433H368.925V49.8433ZM401.411 49.8433V50.8433H402.411V49.8433H401.411ZM401.411 40.6276H402.411V39.6276H401.411V40.6276ZM368.925 40.6276V39.6276H367.925V40.6276H368.925ZM368.004 89.8164V88.8164C365.189 88.8164 362.604 88.0975 360.228 86.6573L359.71 87.5125L359.191 88.3677C361.884 89.9994 364.828 90.8164 368.004 90.8164V89.8164ZM359.71 87.5125L360.228 86.6573C357.831 85.2048 355.912 83.2853 354.459 80.8888L353.604 81.4071L352.749 81.9254C354.368 84.5975 356.519 86.7482 359.191 88.3677L359.71 87.5125ZM353.604 81.4071L354.459 80.8888C353.019 78.5125 352.3 75.9274 352.3 73.1129H351.3H350.3C350.3 76.2887 351.117 79.233 352.749 81.9254L353.604 81.4071ZM351.3 73.1129H352.3V39.706H351.3H350.3V73.1129H351.3ZM351.3 39.706H352.3C352.3 36.8916 353.019 34.3065 354.459 31.9302L353.604 31.4119L352.749 30.8936C351.117 33.586 350.3 36.5302 350.3 39.706H351.3ZM353.604 31.4119L354.459 31.9302C355.912 29.5337 357.831 27.6141 360.228 26.1617L359.71 25.3065L359.191 24.4513C356.519 26.0708 354.368 28.2215 352.749 30.8936L353.604 31.4119ZM359.71 25.3065L360.228 26.1617C362.604 24.7215 365.189 24.0026 368.004 24.0026V23.0026V22.0026C364.828 22.0026 361.884 22.8196 359.191 24.4513L359.71 25.3065ZM368.004 23.0026V24.0026H402.332V23.0026V22.0026H368.004V23.0026ZM402.332 23.0026V24.0026C405.228 24.0026 407.851 24.724 410.223 26.1617L410.742 25.3065L411.26 24.4513C408.563 22.8171 405.58 22.0026 402.332 22.0026V23.0026ZM410.742 25.3065L410.223 26.1617C412.615 27.6114 414.491 29.5248 415.865 31.9109L416.732 31.4119L417.598 30.9129C416.054 28.2304 413.936 26.0735 411.26 24.4513L410.742 25.3065ZM416.732 31.4119L415.877 31.9302C417.317 34.3065 418.036 36.8916 418.036 39.706H419.036H420.036C420.036 36.5302 419.219 33.586 417.587 30.8936L416.732 31.4119ZM419.036 39.706H418.036V65.2796H419.036H420.036V39.706H419.036ZM419.036 65.2796V64.2796H368.925V65.2796V66.2796H419.036V65.2796ZM368.925 65.2796H367.925V72.1914H368.925H369.925V65.2796H368.925ZM368.925 72.1914V73.1914H419.036V72.1914V71.1914H368.925V72.1914ZM419.036 72.1914H418.036V89.8164H419.036H420.036V72.1914H419.036ZM419.036 89.8164V88.8164H368.004V89.8164V90.8164H419.036V89.8164ZM368.925 49.8433V50.8433H401.411V49.8433V48.8433H368.925V49.8433ZM401.411 49.8433H402.411V40.6276H401.411H400.411V49.8433H401.411ZM401.411 40.6276V39.6276H368.925V40.6276V41.6276H401.411V40.6276ZM368.925 40.6276H367.925V49.8433H368.925H369.925V40.6276H368.925ZM469.106 89.8164H468.106V90.8164H469.106V89.8164ZM469.106 6.87509V5.87509H468.106V6.87509H469.106ZM540.182 9.17902L539.663 10.0343L539.675 10.0409L540.182 9.17902ZM546.402 15.3996L545.54 15.9066L545.549 15.9217L545.559 15.9365L546.402 15.3996ZM548.591 42.3555L547.605 42.1911L547.598 42.2279L547.595 42.265L548.591 42.3555ZM548.015 44.7747L547.087 44.4033L546.872 44.9403L547.23 45.3943L548.015 44.7747ZM550.895 49.8433L549.966 50.2147V50.2147L550.895 49.8433ZM549.628 81.2919L548.777 80.7664L548.771 80.7756L548.766 80.7849L549.628 81.2919ZM543.407 87.5125L542.9 86.6505L542.889 86.6573L543.407 87.5125ZM486.961 71.8458H485.961V72.8458H486.961V71.8458ZM533.961 71.8458V72.8458H534.961V71.8458H533.961ZM533.961 56.6399H534.961V55.6399H533.961V56.6399ZM486.961 56.6399V55.6399H485.961V56.6399H486.961ZM486.961 38.6693H485.961V39.6693H486.961V38.6693ZM530.736 38.6693V39.6693H531.736V38.6693H530.736ZM530.736 24.8457H531.736V23.8457H530.736V24.8457ZM486.961 24.8457V23.8457H485.961V24.8457H486.961ZM469.106 89.8164H470.106V6.87509H469.106H468.106V89.8164H469.106ZM469.106 6.87509V7.87509H531.772V6.87509V5.87509H469.106V6.87509ZM531.772 6.87509V7.87509C534.669 7.87509 537.291 8.59656 539.663 10.0342L540.182 9.17902L540.7 8.32381C538.003 6.68958 535.02 5.87509 531.772 5.87509V6.87509ZM540.182 9.17902L539.675 10.0409C542.139 11.4907 544.091 13.4421 545.54 15.9066L546.402 15.3996L547.264 14.8926C545.642 12.1349 543.446 9.93924 540.689 8.31708L540.182 9.17902ZM546.402 15.3996L545.559 15.9365C547.064 18.3024 547.821 20.956 547.821 23.9241H548.821H549.821C549.821 20.5949 548.966 17.5654 547.246 14.8627L546.402 15.3996ZM548.821 23.9241H547.821V39.4756H548.821H549.821V23.9241H548.821ZM548.821 39.4756H547.821C547.821 40.4227 547.749 41.3275 547.605 42.1911L548.591 42.3555L549.577 42.5199C549.741 41.5405 549.821 40.5254 549.821 39.4756H548.821ZM548.591 42.3555L547.595 42.265C547.527 43.0159 547.357 43.7274 547.087 44.4033L548.015 44.7747L548.943 45.1461C549.288 44.2859 549.502 43.3848 549.587 42.4461L548.591 42.3555ZM548.015 44.7747L547.23 45.3943C548.316 46.7701 549.23 48.3741 549.966 50.2147L550.895 49.8433L551.823 49.4719C551.024 47.4726 550.018 45.6975 548.8 44.155L548.015 44.7747ZM550.895 49.8433L549.966 50.2147C550.691 52.0257 551.047 53.8199 551.047 55.6031H552.047H553.047C553.047 53.5464 552.635 51.5008 551.823 49.4719L550.895 49.8433ZM552.047 55.6031H551.047V72.7674H552.047H553.047V55.6031H552.047ZM552.047 72.7674H551.047C551.047 75.6538 550.292 78.3134 548.777 80.7664L549.628 81.2919L550.479 81.8174C552.189 79.0482 553.047 76.0247 553.047 72.7674H552.047ZM549.628 81.2919L548.766 80.7849C547.316 83.2494 545.365 85.2008 542.9 86.6505L543.407 87.5125L543.914 88.3744C546.672 86.7523 548.868 84.5566 550.49 81.7989L549.628 81.2919ZM543.407 87.5125L542.889 86.6573C540.521 88.0925 537.86 88.8164 534.883 88.8164V89.8164V90.8164C538.202 90.8164 541.225 90.0043 543.925 88.3677L543.407 87.5125ZM534.883 89.8164V88.8164H469.106V89.8164V90.8164H534.883V89.8164ZM486.961 71.8458V72.8458H533.961V71.8458V70.8458H486.961V71.8458ZM533.961 71.8458H534.961V56.6399H533.961H532.961V71.8458H533.961ZM533.961 56.6399V55.6399H486.961V56.6399V57.6399H533.961V56.6399ZM486.961 56.6399H485.961V71.8458H486.961H487.961V56.6399H486.961ZM486.961 38.6693V39.6693H530.736V38.6693V37.6693H486.961V38.6693ZM530.736 38.6693H531.736V24.8457H530.736H529.736V38.6693H530.736ZM530.736 24.8457V23.8457H486.961V24.8457V25.8457H530.736V24.8457ZM486.961 24.8457H485.961V38.6693H486.961H487.961V24.8457H486.961ZM566.335 81.4071L565.468 81.906L565.474 81.9158L565.48 81.9254L566.335 81.4071ZM564.146 47.5394V46.5394H563.146V47.5394H564.146ZM614.256 47.5394V48.5394H615.256V47.5394H614.256ZM614.256 40.6276H615.256V39.6276H614.256V40.6276ZM564.146 40.6276H563.146V41.6276H564.146V40.6276ZM564.146 23.0026V22.0026H563.146V23.0026H564.146ZM623.587 25.3065L623.069 26.1617V26.1617L623.587 25.3065ZM629.578 31.4119L628.711 31.9109L628.717 31.9206L628.722 31.9302L629.578 31.4119ZM631.881 89.8164V90.8164H632.881V89.8164H631.881ZM581.771 72.1914H580.771V73.1914H581.771V72.1914ZM614.256 72.1914V73.1914H615.256V72.1914H614.256ZM614.256 62.9757H615.256V61.9757H614.256V62.9757ZM581.771 62.9757V61.9757H580.771V62.9757H581.771ZM580.85 89.8164V88.8164C577.953 88.8164 575.331 88.0949 572.958 86.6573L572.44 87.5125L571.922 88.3677C574.618 90.0019 577.602 90.8164 580.85 90.8164V89.8164ZM572.44 87.5125L572.958 86.6573C570.562 85.2048 568.642 83.2853 567.19 80.8888L566.335 81.4071L565.48 81.9254C567.099 84.5975 569.25 86.7482 571.922 88.3677L572.44 87.5125ZM566.335 81.4071L567.201 80.9081C565.832 78.5294 565.146 75.9374 565.146 73.1129H564.146H563.146C563.146 76.2787 563.919 79.2162 565.468 81.906L566.335 81.4071ZM564.146 73.1129H565.146V47.5394H564.146H563.146V73.1129H564.146ZM564.146 47.5394V48.5394H614.256V47.5394V46.5394H564.146V47.5394ZM614.256 47.5394H615.256V40.6276H614.256H613.256V47.5394H614.256ZM614.256 40.6276V39.6276H564.146V40.6276V41.6276H614.256V40.6276ZM564.146 40.6276H565.146V23.0026H564.146H563.146V40.6276H564.146ZM564.146 23.0026V24.0026H615.178V23.0026V22.0026H564.146V23.0026ZM615.178 23.0026V24.0026C618.074 24.0026 620.697 24.724 623.069 26.1617L623.587 25.3065L624.106 24.4513C621.409 22.8171 618.426 22.0026 615.178 22.0026V23.0026ZM623.587 25.3065L623.069 26.1617C625.461 27.6114 627.337 29.5248 628.711 31.9109L629.578 31.4119L630.444 30.9129C628.9 28.2304 626.782 26.0735 624.106 24.4513L623.587 25.3065ZM629.578 31.4119L628.722 31.9302C630.163 34.3065 630.881 36.8916 630.881 39.706H631.881H632.881C632.881 36.5302 632.065 33.586 630.433 30.8936L629.578 31.4119ZM631.881 39.706H630.881V89.8164H631.881H632.881V39.706H631.881ZM631.881 89.8164V88.8164H580.85V89.8164V90.8164H631.881V89.8164ZM581.771 72.1914V73.1914H614.256V72.1914V71.1914H581.771V72.1914ZM614.256 72.1914H615.256V62.9757H614.256H613.256V72.1914H614.256ZM614.256 62.9757V61.9757H581.771V62.9757V63.9757H614.256V62.9757ZM581.771 62.9757H580.771V72.1914H581.771H582.771V62.9757H581.771ZM649.503 87.5125L648.985 88.3677V88.3677L649.503 87.5125ZM643.398 81.4071L644.253 80.8888V80.8888L643.398 81.4071ZM641.094 1.00008V8.39233e-05H640.094V1.00008H641.094ZM658.834 1.00008H659.834V8.39233e-05H658.834V1.00008ZM658.834 72.1914H657.834V73.1914H658.834V72.1914ZM672.312 72.1914H673.312V71.1914H672.312V72.1914ZM672.312 89.8164V90.8164H673.312V89.8164H672.312ZM657.797 89.8164V88.8164C654.983 88.8164 652.398 88.0975 650.021 86.6573L649.503 87.5125L648.985 88.3677C651.677 89.9994 654.621 90.8164 657.797 90.8164V89.8164ZM649.503 87.5125L650.021 86.6573C647.625 85.2048 645.705 83.2853 644.253 80.8888L643.398 81.4071L642.542 81.9254C644.162 84.5975 646.312 86.7482 648.985 88.3677L649.503 87.5125ZM643.398 81.4071L644.253 80.8888C642.813 78.5125 642.094 75.9274 642.094 73.1129H641.094H640.094C640.094 76.2887 640.911 79.233 642.542 81.9254L643.398 81.4071ZM641.094 73.1129H642.094V1.00008H641.094H640.094V73.1129H641.094ZM641.094 1.00008V2.00008H658.834V1.00008V8.39233e-05H641.094V1.00008ZM658.834 1.00008H657.834V72.1914H658.834H659.834V1.00008H658.834ZM658.834 72.1914V73.1914H672.312V72.1914V71.1914H658.834V72.1914ZM672.312 72.1914H671.312V89.8164H672.312H673.312V72.1914H672.312ZM672.312 89.8164V88.8164H657.797V89.8164V90.8164H672.312V89.8164ZM688.429 87.5125L687.911 88.3677V88.3677L688.429 87.5125ZM682.324 81.4071L683.179 80.8888V80.8888L682.324 81.4071ZM680.02 3.18881V2.18881H679.02V3.18881H680.02ZM697.645 3.18881H698.645V2.18881H697.645V3.18881ZM697.645 23.0026H696.645V24.0026H697.645V23.0026ZM722.412 23.0026H723.412V22.0026H722.412V23.0026ZM722.412 40.6276V41.6276H723.412V40.6276H722.412ZM697.645 40.6276V39.6276H696.645V40.6276H697.645ZM697.645 72.1914H696.645V73.1914H697.645V72.1914ZM722.412 72.1914H723.412V71.1914H722.412V72.1914ZM722.412 89.8164V90.8164H723.412V89.8164H722.412ZM696.839 89.8164V88.8164C693.943 88.8164 691.32 88.0949 688.948 86.6573L688.429 87.5125L687.911 88.3677C690.608 90.0019 693.591 90.8164 696.839 90.8164V89.8164ZM688.429 87.5125L688.948 86.6573C686.551 85.2048 684.632 83.2853 683.179 80.8888L682.324 81.4071L681.469 81.9254C683.088 84.5975 685.239 86.7482 687.911 88.3677L688.429 87.5125ZM682.324 81.4071L683.179 80.8888C681.739 78.5125 681.02 75.9274 681.02 73.1129H680.02H679.02C679.02 76.2887 679.837 79.233 681.469 81.9254L682.324 81.4071ZM680.02 73.1129H681.02V3.18881H680.02H679.02V73.1129H680.02ZM680.02 3.18881V4.18881H697.645V3.18881V2.18881H680.02V3.18881ZM697.645 3.18881H696.645V23.0026H697.645H698.645V3.18881H697.645ZM697.645 23.0026V24.0026H722.412V23.0026V22.0026H697.645V23.0026ZM722.412 23.0026H721.412V40.6276H722.412H723.412V23.0026H722.412ZM722.412 40.6276V39.6276H697.645V40.6276V41.6276H722.412V40.6276ZM697.645 40.6276H696.645V72.1914H697.645H698.645V40.6276H697.645ZM697.645 72.1914V73.1914H722.412V72.1914V71.1914H697.645V72.1914ZM722.412 72.1914H721.412V89.8164H722.412H723.412V72.1914H722.412ZM722.412 89.8164V88.8164H696.839V89.8164V90.8164H722.412V89.8164ZM731.878 89.8164H730.878V90.8164H731.878V89.8164ZM731.878 23.0026V22.0026H730.878V23.0026H731.878ZM749.503 23.0026H750.503V22.0026H749.503V23.0026ZM749.503 89.8164V90.8164H750.503V89.8164H749.503ZM731.878 18.8555H730.878V19.8555H731.878V18.8555ZM731.878 1.11528V0.11528H730.878V1.11528H731.878ZM749.503 1.11528H750.503V0.11528H749.503V1.11528ZM749.503 18.8555V19.8555H750.503V18.8555H749.503ZM731.878 89.8164H732.878V23.0026H731.878H730.878V89.8164H731.878ZM731.878 23.0026V24.0026H749.503V23.0026V22.0026H731.878V23.0026ZM749.503 23.0026H748.503V89.8164H749.503H750.503V23.0026H749.503ZM749.503 89.8164V88.8164H731.878V89.8164V90.8164H749.503V89.8164ZM731.878 18.8555H732.878V1.11528H731.878H730.878V18.8555H731.878ZM731.878 1.11528V2.11528H749.503V1.11528V0.11528H731.878V1.11528ZM749.503 1.11528H748.503V18.8555H749.503H750.503V1.11528H749.503ZM749.503 18.8555V17.8555H731.878V18.8555V19.8555H749.503V18.8555ZM761.628 81.4071L760.773 81.9254V81.9254L761.628 81.4071ZM761.628 31.4119L760.773 30.8936V30.8936L761.628 31.4119ZM767.734 25.3065L768.252 26.1617V26.1617L767.734 25.3065ZM826.945 23.0026H827.945V22.0026H826.945V23.0026ZM826.945 40.6276V41.6276H827.945V40.6276H826.945ZM776.95 40.6276V39.6276H775.95V40.6276H776.95ZM776.95 72.1914H775.95V73.1914H776.95V72.1914ZM827.06 72.1914H828.06V71.1914H827.06V72.1914ZM827.06 89.8164V90.8164H828.06V89.8164H827.06ZM776.028 89.8164V88.8164C773.214 88.8164 770.628 88.0975 768.252 86.6573L767.734 87.5125L767.216 88.3677C769.908 89.9994 772.852 90.8164 776.028 90.8164V89.8164ZM767.734 87.5125L768.252 86.6573C765.856 85.2048 763.936 83.2853 762.484 80.8888L761.628 81.4071L760.773 81.9254C762.393 84.5975 764.543 86.7482 767.216 88.3677L767.734 87.5125ZM761.628 81.4071L762.484 80.8888C761.044 78.5125 760.325 75.9274 760.325 73.1129H759.325H758.325C758.325 76.2887 759.142 79.233 760.773 81.9254L761.628 81.4071ZM759.325 73.1129H760.325V39.706H759.325H758.325V73.1129H759.325ZM759.325 39.706H760.325C760.325 36.8916 761.044 34.3065 762.484 31.9302L761.628 31.4119L760.773 30.8936C759.142 33.586 758.325 36.5302 758.325 39.706H759.325ZM761.628 31.4119L762.484 31.9302C763.936 29.5337 765.856 27.6141 768.252 26.1617L767.734 25.3065L767.216 24.4513C764.543 26.0708 762.393 28.2215 760.773 30.8936L761.628 31.4119ZM767.734 25.3065L768.252 26.1617C770.628 24.7215 773.214 24.0026 776.028 24.0026V23.0026V22.0026C772.852 22.0026 769.908 22.8196 767.216 24.4513L767.734 25.3065ZM776.028 23.0026V24.0026H826.945V23.0026V22.0026H776.028V23.0026ZM826.945 23.0026H825.945V40.6276H826.945H827.945V23.0026H826.945ZM826.945 40.6276V39.6276H776.95V40.6276V41.6276H826.945V40.6276ZM776.95 40.6276H775.95V72.1914H776.95H777.95V40.6276H776.95ZM776.95 72.1914V73.1914H827.06V72.1914V71.1914H776.95V72.1914ZM827.06 72.1914H826.06V89.8164H827.06H828.06V72.1914H827.06ZM827.06 89.8164V88.8164H776.028V89.8164V90.8164H827.06V89.8164ZM885.416 87.5125L885.923 86.6505V86.6505L885.416 87.5125ZM879.195 81.2919L878.333 81.7989V81.7989L879.195 81.2919ZM876.891 65.0492V64.0492H875.891V65.0492H876.891ZM894.747 65.0492H895.747V64.0492H894.747V65.0492ZM894.747 71.8458H893.747V72.8458H894.747V71.8458ZM941.747 71.8458V72.8458H942.747V71.8458H941.747ZM941.747 57.3311H942.747V56.3311H941.747V57.3311ZM885.416 55.0271L885.923 54.1652V54.1652L885.416 55.0271ZM879.195 48.9217L878.333 49.4288L878.34 49.44L879.195 48.9217ZM879.195 15.3996L880.051 15.918L880.057 15.9066L879.195 15.3996ZM885.416 9.17902L884.909 8.31708V8.31708L885.416 9.17902ZM951.193 9.17902L950.675 10.0343L950.686 10.0409L951.193 9.17902ZM957.414 15.3996L956.552 15.9066L956.56 15.9217L956.57 15.9365L957.414 15.3996ZM959.833 31.6423V32.6423H960.833V31.6423H959.833ZM941.747 31.6423H940.747V32.6423H941.747V31.6423ZM941.747 24.8457H942.747V23.8457H941.747V24.8457ZM894.747 24.8457V23.8457H893.747V24.8457H894.747ZM894.747 39.3604H893.747V40.3604H894.747V39.3604ZM951.193 41.6644L950.675 42.5196L950.686 42.5263L951.193 41.6644ZM957.414 47.885L956.552 48.392L956.56 48.4071L956.57 48.4218L957.414 47.885ZM957.414 81.2919L956.563 80.7664L956.557 80.7756L956.552 80.7849L957.414 81.2919ZM951.193 87.5125L950.686 86.6505L950.675 86.6573L951.193 87.5125ZM893.94 89.8164V88.8164C891.044 88.8164 888.378 88.0948 885.923 86.6505L885.416 87.5125L884.909 88.3744C887.676 90.0021 890.693 90.8164 893.94 90.8164V89.8164ZM885.416 87.5125L885.923 86.6505C883.458 85.2008 881.507 83.2494 880.057 80.7849L879.195 81.2919L878.333 81.7989C879.956 84.5566 882.151 86.7523 884.909 88.3744L885.416 87.5125ZM879.195 81.2919L880.057 80.7849C878.613 78.3297 877.891 75.6636 877.891 72.7674H876.891H875.891C875.891 76.0149 876.706 79.0319 878.333 81.7989L879.195 81.2919ZM876.891 72.7674H877.891V65.0492H876.891H875.891V72.7674H876.891ZM876.891 65.0492V66.0492H894.747V65.0492V64.0492H876.891V65.0492ZM894.747 65.0492H893.747V71.8458H894.747H895.747V65.0492H894.747ZM894.747 71.8458V72.8458H941.747V71.8458V70.8458H894.747V71.8458ZM941.747 71.8458H942.747V57.3311H941.747H940.747V71.8458H941.747ZM941.747 57.3311V56.3311H893.94V57.3311V58.3311H941.747V57.3311ZM893.94 57.3311V56.3311C891.044 56.3311 888.378 55.6094 885.923 54.1652L885.416 55.0271L884.909 55.8891C887.676 57.5167 890.693 58.3311 893.94 58.3311V57.3311ZM885.416 55.0271L885.923 54.1652C883.451 52.7113 881.499 50.7929 880.05 48.4034L879.195 48.9217L878.34 49.44C879.964 52.1192 882.158 54.2711 884.909 55.8891L885.416 55.0271ZM879.195 48.9217L880.057 48.4147C878.615 45.9635 877.891 43.2598 877.891 40.282H876.891H875.891C875.891 43.6017 876.703 46.6578 878.333 49.4287L879.195 48.9217ZM876.891 40.282H877.891V23.9241H876.891H875.891V40.282H876.891ZM876.891 23.9241H877.891C877.891 20.9463 878.615 18.2861 880.05 15.9179L879.195 15.3996L878.34 14.8813C876.703 17.5818 875.891 20.6046 875.891 23.9241H876.891ZM879.195 15.3996L880.057 15.9066C881.507 13.4421 883.458 11.4907 885.923 10.0409L885.416 9.17902L884.909 8.31708C882.151 9.93924 879.956 12.1349 878.333 14.8926L879.195 15.3996ZM885.416 9.17902L885.923 10.0409C888.378 8.59673 891.044 7.87509 893.94 7.87509V6.87509V5.87509C890.693 5.87509 887.676 6.68941 884.909 8.31708L885.416 9.17902ZM893.94 6.87509V7.87509H942.784V6.87509V5.87509H893.94V6.87509ZM942.784 6.87509V7.87509C945.68 7.87509 948.303 8.59656 950.675 10.0342L951.193 9.17902L951.711 8.32381C949.015 6.68958 946.031 5.87509 942.784 5.87509V6.87509ZM951.193 9.17902L950.686 10.0409C953.151 11.4907 955.102 13.4421 956.552 15.9066L957.414 15.3996L958.276 14.8926C956.653 12.1349 954.458 9.93924 951.7 8.31708L951.193 9.17902ZM957.414 15.3996L956.57 15.9365C958.076 18.3024 958.833 20.956 958.833 23.9241H959.833H960.833C960.833 20.5949 959.977 17.5654 958.257 14.8627L957.414 15.3996ZM959.833 23.9241H958.833V31.6423H959.833H960.833V23.9241H959.833ZM959.833 31.6423V30.6423H941.747V31.6423V32.6423H959.833V31.6423ZM941.747 31.6423H942.747V24.8457H941.747H940.747V31.6423H941.747ZM941.747 24.8457V23.8457H894.747V24.8457V25.8457H941.747V24.8457ZM894.747 24.8457H893.747V39.3604H894.747H895.747V24.8457H894.747ZM894.747 39.3604V40.3604H942.784V39.3604V38.3604H894.747V39.3604ZM942.784 39.3604V40.3604C945.68 40.3604 948.303 41.0819 950.675 42.5196L951.193 41.6644L951.711 40.8092C949.015 39.1749 946.031 38.3604 942.784 38.3604V39.3604ZM951.193 41.6644L950.686 42.5263C953.151 43.976 955.102 45.9274 956.552 48.392L957.414 47.885L958.276 47.3779C956.653 44.6203 954.458 42.4246 951.7 40.8024L951.193 41.6644ZM957.414 47.885L956.57 48.4218C958.076 50.7878 958.833 53.4413 958.833 56.4095H959.833H960.833C960.833 53.0802 959.977 50.0508 958.257 47.3481L957.414 47.885ZM959.833 56.4095H958.833V72.7674H959.833H960.833V56.4095H959.833ZM959.833 72.7674H958.833C958.833 75.6538 958.078 78.3134 956.563 80.7664L957.414 81.2919L958.264 81.8174C959.975 79.0482 960.833 76.0247 960.833 72.7674H959.833ZM957.414 81.2919L956.552 80.7849C955.102 83.2494 953.151 85.2008 950.686 86.6505L951.193 87.5125L951.7 88.3744C954.458 86.7523 956.653 84.5566 958.276 81.7989L957.414 81.2919ZM951.193 87.5125L950.675 86.6573C948.303 88.0949 945.68 88.8164 942.784 88.8164V89.8164V90.8164C946.031 90.8164 949.015 90.0019 951.711 88.3677L951.193 87.5125ZM942.784 89.8164V88.8164H893.94V89.8164V90.8164H942.784V89.8164ZM974.247 81.4071L973.391 81.9254V81.9254L974.247 81.4071ZM974.247 31.4119L973.391 30.8936V30.8936L974.247 31.4119ZM980.352 25.3065L980.87 26.1617V26.1617L980.352 25.3065ZM1031.38 25.3065L1030.87 26.1617V26.1617L1031.38 25.3065ZM1037.37 31.4119L1036.51 31.9109L1036.51 31.9206L1036.52 31.9302L1037.37 31.4119ZM1037.37 81.4071L1036.52 80.8888L1036.51 80.8984L1036.51 80.9081L1037.37 81.4071ZM1031.38 87.5125L1031.9 88.3677L1031.38 87.5125ZM989.568 72.1914H988.568V73.1914H989.568V72.1914ZM1022.05 72.1914V73.1914H1023.05V72.1914H1022.05ZM1022.05 40.6276H1023.05V39.6276H1022.05V40.6276ZM989.568 40.6276V39.6276H988.568V40.6276H989.568ZM988.646 89.8164V88.8164C985.832 88.8164 983.247 88.0975 980.87 86.6573L980.352 87.5125L979.834 88.3677C982.526 89.9994 985.47 90.8164 988.646 90.8164V89.8164ZM980.352 87.5125L980.87 86.6573C978.474 85.2048 976.554 83.2853 975.102 80.8888L974.247 81.4071L973.391 81.9254C975.011 84.5975 977.162 86.7482 979.834 88.3677L980.352 87.5125ZM974.247 81.4071L975.102 80.8888C973.662 78.5125 972.943 75.9274 972.943 73.1129H971.943H970.943C970.943 76.2887 971.76 79.233 973.391 81.9254L974.247 81.4071ZM971.943 73.1129H972.943V39.706H971.943H970.943V73.1129H971.943ZM971.943 39.706H972.943C972.943 36.8916 973.662 34.3065 975.102 31.9302L974.247 31.4119L973.391 30.8936C971.76 33.586 970.943 36.5302 970.943 39.706H971.943ZM974.247 31.4119L975.102 31.9302C976.554 29.5337 978.474 27.6141 980.87 26.1617L980.352 25.3065L979.834 24.4513C977.162 26.0708 975.011 28.2215 973.391 30.8936L974.247 31.4119ZM980.352 25.3065L980.87 26.1617C983.247 24.7215 985.832 24.0026 988.646 24.0026V23.0026V22.0026C985.47 22.0026 982.526 22.8196 979.834 24.4513L980.352 25.3065ZM988.646 23.0026V24.0026H1022.97V23.0026V22.0026H988.646V23.0026ZM1022.97 23.0026V24.0026C1025.87 24.0026 1028.49 24.724 1030.87 26.1617L1031.38 25.3065L1031.9 24.4513C1029.21 22.8171 1026.22 22.0026 1022.97 22.0026V23.0026ZM1031.38 25.3065L1030.87 26.1617C1033.26 27.6114 1035.13 29.5248 1036.51 31.9109L1037.37 31.4119L1038.24 30.9129C1036.7 28.2304 1034.58 26.0735 1031.9 24.4513L1031.38 25.3065ZM1037.37 31.4119L1036.52 31.9302C1037.96 34.3065 1038.68 36.8916 1038.68 39.706H1039.68H1040.68C1040.68 36.5302 1039.86 33.586 1038.23 30.8936L1037.37 31.4119ZM1039.68 39.706H1038.68V73.1129H1039.68H1040.68V39.706H1039.68ZM1039.68 73.1129H1038.68C1038.68 75.9274 1037.96 78.5125 1036.52 80.8888L1037.37 81.4071L1038.23 81.9254C1039.86 79.233 1040.68 76.2887 1040.68 73.1129H1039.68ZM1037.37 81.4071L1036.51 80.9081C1035.13 83.2942 1033.26 85.2076 1030.87 86.6573L1031.38 87.5125L1031.9 88.3677C1034.58 86.7455 1036.7 84.5886 1038.24 81.906L1037.37 81.4071ZM1031.38 87.5125L1030.87 86.6573C1028.49 88.0949 1025.87 88.8164 1022.97 88.8164V89.8164V90.8164C1026.22 90.8164 1029.21 90.0019 1031.9 88.3677L1031.38 87.5125ZM1022.97 89.8164V88.8164H988.646V89.8164V90.8164H1022.97V89.8164ZM989.568 72.1914V73.1914H1022.05V72.1914V71.1914H989.568V72.1914ZM1022.05 72.1914H1023.05V40.6276H1022.05H1021.05V72.1914H1022.05ZM1022.05 40.6276V39.6276H989.568V40.6276V41.6276H1022.05V40.6276ZM989.568 40.6276H988.568V72.1914H989.568H990.568V40.6276H989.568ZM1057.19 87.5125L1056.67 88.3677V88.3677L1057.19 87.5125ZM1051.08 81.4071L1051.94 80.8888V80.8888L1051.08 81.4071ZM1048.78 1.00008V8.39233e-05H1047.78V1.00008H1048.78ZM1066.52 1.00008H1067.52V8.39233e-05H1066.52V1.00008ZM1066.52 72.1914H1065.52V73.1914H1066.52V72.1914ZM1080 72.1914H1081V71.1914H1080V72.1914ZM1080 89.8164V90.8164H1081V89.8164H1080ZM1065.48 89.8164V88.8164C1062.67 88.8164 1060.08 88.0975 1057.71 86.6573L1057.19 87.5125L1056.67 88.3677C1059.36 89.9994 1062.31 90.8164 1065.48 90.8164V89.8164ZM1057.19 87.5125L1057.71 86.6573C1055.31 85.2048 1053.39 83.2853 1051.94 80.8888L1051.08 81.4071L1050.23 81.9254C1051.85 84.5975 1054 86.7482 1056.67 88.3677L1057.19 87.5125ZM1051.08 81.4071L1051.94 80.8888C1050.5 78.5125 1049.78 75.9274 1049.78 73.1129H1048.78H1047.78C1047.78 76.2887 1048.6 79.233 1050.23 81.9254L1051.08 81.4071ZM1048.78 73.1129H1049.78V1.00008H1048.78H1047.78V73.1129H1048.78ZM1048.78 1.00008V2.00008H1066.52V1.00008V8.39233e-05H1048.78V1.00008ZM1066.52 1.00008H1065.52V72.1914H1066.52H1067.52V1.00008H1066.52ZM1066.52 72.1914V73.1914H1080V72.1914V71.1914H1066.52V72.1914ZM1080 72.1914H1079V89.8164H1080H1081V72.1914H1080ZM1080 89.8164V88.8164H1065.48V89.8164V90.8164H1080V89.8164ZM1097.24 87.5125L1096.72 88.3677V88.3677L1097.24 87.5125ZM1091.13 81.4071L1090.27 81.906L1090.27 81.9158L1090.28 81.9254L1091.13 81.4071ZM1088.94 23.0026V22.0026H1087.94V23.0026H1088.94ZM1106.57 23.0026H1107.57V22.0026H1106.57V23.0026ZM1106.57 72.1914H1105.57V73.1914H1106.57V72.1914ZM1139.05 72.1914V73.1914H1140.05V72.1914H1139.05ZM1139.05 23.0026V22.0026H1138.05V23.0026H1139.05ZM1156.68 23.0026H1157.68V22.0026H1156.68V23.0026ZM1154.38 81.4071L1153.52 80.8888L1153.51 80.8984L1153.51 80.9081L1154.38 81.4071ZM1148.39 87.5125L1147.87 86.6573V86.6573L1148.39 87.5125ZM1105.65 89.8164V88.8164C1102.75 88.8164 1100.13 88.0949 1097.76 86.6573L1097.24 87.5125L1096.72 88.3677C1099.42 90.0019 1102.4 90.8164 1105.65 90.8164V89.8164ZM1097.24 87.5125L1097.76 86.6573C1095.36 85.2048 1093.44 83.2853 1091.99 80.8888L1091.13 81.4071L1090.28 81.9254C1091.9 84.5975 1094.05 86.7482 1096.72 88.3677L1097.24 87.5125ZM1091.13 81.4071L1092 80.9081C1090.63 78.5294 1089.94 75.9374 1089.94 73.1129H1088.94H1087.94C1087.94 76.2787 1088.72 79.2162 1090.27 81.906L1091.13 81.4071ZM1088.94 73.1129H1089.94V23.0026H1088.94H1087.94V73.1129H1088.94ZM1088.94 23.0026V24.0026H1106.57V23.0026V22.0026H1088.94V23.0026ZM1106.57 23.0026H1105.57V72.1914H1106.57H1107.57V23.0026H1106.57ZM1106.57 72.1914V73.1914H1139.05V72.1914V71.1914H1106.57V72.1914ZM1139.05 72.1914H1140.05V23.0026H1139.05H1138.05V72.1914H1139.05ZM1139.05 23.0026V24.0026H1156.68V23.0026V22.0026H1139.05V23.0026ZM1156.68 23.0026H1155.68V73.1129H1156.68H1157.68V23.0026H1156.68ZM1156.68 73.1129H1155.68C1155.68 75.9274 1154.96 78.5125 1153.52 80.8888L1154.38 81.4071L1155.23 81.9254C1156.86 79.233 1157.68 76.2887 1157.68 73.1129H1156.68ZM1154.38 81.4071L1153.51 80.9081C1152.14 83.2942 1150.26 85.2076 1147.87 86.6573L1148.39 87.5125L1148.9 88.3677C1151.58 86.7455 1153.7 84.5886 1155.24 81.906L1154.38 81.4071ZM1148.39 87.5125L1147.87 86.6573C1145.5 88.0949 1142.87 88.8164 1139.98 88.8164V89.8164V90.8164C1143.22 90.8164 1146.21 90.0019 1148.9 88.3677L1148.39 87.5125ZM1139.98 89.8164V88.8164H1105.65V89.8164V90.8164H1139.98V89.8164ZM1174.64 87.5125L1174.12 88.3677V88.3677L1174.64 87.5125ZM1168.53 81.4071L1169.39 80.8888V80.8888L1168.53 81.4071ZM1166.23 3.18881V2.18881H1165.23V3.18881H1166.23ZM1183.85 3.18881H1184.85V2.18881H1183.85V3.18881ZM1183.85 23.0026H1182.85V24.0026H1183.85V23.0026ZM1208.62 23.0026H1209.62V22.0026H1208.62V23.0026ZM1208.62 40.6276V41.6276H1209.62V40.6276H1208.62ZM1183.85 40.6276V39.6276H1182.85V40.6276H1183.85ZM1183.85 72.1914H1182.85V73.1914H1183.85V72.1914ZM1208.62 72.1914H1209.62V71.1914H1208.62V72.1914ZM1208.62 89.8164V90.8164H1209.62V89.8164H1208.62ZM1183.05 89.8164V88.8164C1180.15 88.8164 1177.53 88.0949 1175.16 86.6573L1174.64 87.5125L1174.12 88.3677C1176.82 90.0019 1179.8 90.8164 1183.05 90.8164V89.8164ZM1174.64 87.5125L1175.16 86.6573C1172.76 85.2048 1170.84 83.2853 1169.39 80.8888L1168.53 81.4071L1167.68 81.9254C1169.3 84.5975 1171.45 86.7482 1174.12 88.3677L1174.64 87.5125ZM1168.53 81.4071L1169.39 80.8888C1167.95 78.5125 1167.23 75.9274 1167.23 73.1129H1166.23H1165.23C1165.23 76.2887 1166.05 79.233 1167.68 81.9254L1168.53 81.4071ZM1166.23 73.1129H1167.23V3.18881H1166.23H1165.23V73.1129H1166.23ZM1166.23 3.18881V4.18881H1183.85V3.18881V2.18881H1166.23V3.18881ZM1183.85 3.18881H1182.85V23.0026H1183.85H1184.85V3.18881H1183.85ZM1183.85 23.0026V24.0026H1208.62V23.0026V22.0026H1183.85V23.0026ZM1208.62 23.0026H1207.62V40.6276H1208.62H1209.62V23.0026H1208.62ZM1208.62 40.6276V39.6276H1183.85V40.6276V41.6276H1208.62V40.6276ZM1183.85 40.6276H1182.85V72.1914H1183.85H1184.85V40.6276H1183.85ZM1183.85 72.1914V73.1914H1208.62V72.1914V71.1914H1183.85V72.1914ZM1208.62 72.1914H1207.62V89.8164H1208.62H1209.62V72.1914H1208.62ZM1208.62 89.8164V88.8164H1183.05V89.8164V90.8164H1208.62V89.8164ZM1218.09 89.8164H1217.09V90.8164H1218.09V89.8164ZM1218.09 23.0026V22.0026H1217.09V23.0026H1218.09ZM1235.71 23.0026H1236.71V22.0026H1235.71V23.0026ZM1235.71 89.8164V90.8164H1236.71V89.8164H1235.71ZM1218.09 18.8555H1217.09V19.8555H1218.09V18.8555ZM1218.09 1.11528V0.11528H1217.09V1.11528H1218.09ZM1235.71 1.11528H1236.71V0.11528H1235.71V1.11528ZM1235.71 18.8555V19.8555H1236.71V18.8555H1235.71ZM1218.09 89.8164H1219.09V23.0026H1218.09H1217.09V89.8164H1218.09ZM1218.09 23.0026V24.0026H1235.71V23.0026V22.0026H1218.09V23.0026ZM1235.71 23.0026H1234.71V89.8164H1235.71H1236.71V23.0026H1235.71ZM1235.71 89.8164V88.8164H1218.09V89.8164V90.8164H1235.71V89.8164ZM1218.09 18.8555H1219.09V1.11528H1218.09H1217.09V18.8555H1218.09ZM1218.09 1.11528V2.11528H1235.71V1.11528V0.11528H1218.09V1.11528ZM1235.71 1.11528H1234.71V18.8555H1235.71H1236.71V1.11528H1235.71ZM1235.71 18.8555V17.8555H1218.09V18.8555V19.8555H1235.71V18.8555ZM1246.6 81.4071L1245.75 81.9254V81.9254L1246.6 81.4071ZM1246.6 31.4119L1245.75 30.8936V30.8936L1246.6 31.4119ZM1252.71 25.3065L1253.22 26.1617V26.1617L1252.71 25.3065ZM1303.74 25.3065L1303.22 26.1617V26.1617L1303.74 25.3065ZM1309.73 31.4119L1308.86 31.9109L1308.87 31.9206L1308.87 31.9302L1309.73 31.4119ZM1309.73 81.4071L1308.87 80.8888L1308.87 80.8984L1308.86 80.9081L1309.73 81.4071ZM1303.74 87.5125L1304.26 88.3677L1303.74 87.5125ZM1261.92 72.1914H1260.92V73.1914H1261.92V72.1914ZM1294.41 72.1914V73.1914H1295.41V72.1914H1294.41ZM1294.41 40.6276H1295.41V39.6276H1294.41V40.6276ZM1261.92 40.6276V39.6276H1260.92V40.6276H1261.92ZM1261 89.8164V88.8164C1258.19 88.8164 1255.6 88.0975 1253.22 86.6573L1252.71 87.5125L1252.19 88.3677C1254.88 89.9994 1257.82 90.8164 1261 90.8164V89.8164ZM1252.71 87.5125L1253.22 86.6573C1250.83 85.2048 1248.91 83.2853 1247.46 80.8888L1246.6 81.4071L1245.75 81.9254C1247.36 84.5975 1249.52 86.7482 1252.19 88.3677L1252.71 87.5125ZM1246.6 81.4071L1247.46 80.8888C1246.02 78.5125 1245.3 75.9274 1245.3 73.1129H1244.3H1243.3C1243.3 76.2887 1244.11 79.233 1245.75 81.9254L1246.6 81.4071ZM1244.3 73.1129H1245.3V39.706H1244.3H1243.3V73.1129H1244.3ZM1244.3 39.706H1245.3C1245.3 36.8916 1246.02 34.3065 1247.46 31.9302L1246.6 31.4119L1245.75 30.8936C1244.11 33.586 1243.3 36.5302 1243.3 39.706H1244.3ZM1246.6 31.4119L1247.46 31.9302C1248.91 29.5337 1250.83 27.6141 1253.22 26.1617L1252.71 25.3065L1252.19 24.4513C1249.52 26.0708 1247.36 28.2215 1245.75 30.8936L1246.6 31.4119ZM1252.71 25.3065L1253.22 26.1617C1255.6 24.7215 1258.19 24.0026 1261 24.0026V23.0026V22.0026C1257.82 22.0026 1254.88 22.8196 1252.19 24.4513L1252.71 25.3065ZM1261 23.0026V24.0026H1295.33V23.0026V22.0026H1261V23.0026ZM1295.33 23.0026V24.0026C1298.22 24.0026 1300.85 24.724 1303.22 26.1617L1303.74 25.3065L1304.26 24.4513C1301.56 22.8171 1298.58 22.0026 1295.33 22.0026V23.0026ZM1303.74 25.3065L1303.22 26.1617C1305.61 27.6114 1307.49 29.5248 1308.86 31.9109L1309.73 31.4119L1310.59 30.9129C1309.05 28.2304 1306.93 26.0735 1304.26 24.4513L1303.74 25.3065ZM1309.73 31.4119L1308.87 31.9302C1310.31 34.3065 1311.03 36.8916 1311.03 39.706H1312.03H1313.03C1313.03 36.5302 1312.21 33.586 1310.58 30.8936L1309.73 31.4119ZM1312.03 39.706H1311.03V73.1129H1312.03H1313.03V39.706H1312.03ZM1312.03 73.1129H1311.03C1311.03 75.9274 1310.31 78.5125 1308.87 80.8888L1309.73 81.4071L1310.58 81.9254C1312.21 79.233 1313.03 76.2887 1313.03 73.1129H1312.03ZM1309.73 81.4071L1308.86 80.9081C1307.49 83.2942 1305.61 85.2076 1303.22 86.6573L1303.74 87.5125L1304.26 88.3677C1306.93 86.7455 1309.05 84.5886 1310.59 81.906L1309.73 81.4071ZM1303.74 87.5125L1303.22 86.6573C1300.85 88.0949 1298.22 88.8164 1295.33 88.8164V89.8164V90.8164C1298.58 90.8164 1301.56 90.0019 1304.26 88.3677L1303.74 87.5125ZM1295.33 89.8164V88.8164H1261V89.8164V90.8164H1295.33V89.8164ZM1261.92 72.1914V73.1914H1294.41V72.1914V71.1914H1261.92V72.1914ZM1294.41 72.1914H1295.41V40.6276H1294.41H1293.41V72.1914H1294.41ZM1294.41 40.6276V39.6276H1261.92V40.6276V41.6276H1294.41V40.6276ZM1261.92 40.6276H1260.92V72.1914H1261.92H1262.92V40.6276H1261.92ZM1321.14 89.8164H1320.14V90.8164H1321.14V89.8164ZM1321.14 23.0026V22.0026H1320.14V23.0026H1321.14ZM1380.58 25.3065L1380.06 26.1617V26.1617L1380.58 25.3065ZM1386.57 31.4119L1385.7 31.9109L1385.71 31.9206L1385.72 31.9302L1386.57 31.4119ZM1388.87 89.8164V90.8164H1389.87V89.8164H1388.87ZM1371.25 89.8164H1370.25V90.8164H1371.25V89.8164ZM1371.25 40.6276H1372.25V39.6276H1371.25V40.6276ZM1338.76 40.6276V39.6276H1337.76V40.6276H1338.76ZM1338.76 89.8164V90.8164H1339.76V89.8164H1338.76ZM1321.14 89.8164H1322.14V23.0026H1321.14H1320.14V89.8164H1321.14ZM1321.14 23.0026V24.0026H1372.17V23.0026V22.0026H1321.14V23.0026ZM1372.17 23.0026V24.0026C1375.07 24.0026 1377.69 24.724 1380.06 26.1617L1380.58 25.3065L1381.1 24.4513C1378.4 22.8171 1375.42 22.0026 1372.17 22.0026V23.0026ZM1380.58 25.3065L1380.06 26.1617C1382.45 27.6114 1384.33 29.5248 1385.7 31.9109L1386.57 31.4119L1387.44 30.9129C1385.89 28.2304 1383.78 26.0735 1381.1 24.4513L1380.58 25.3065ZM1386.57 31.4119L1385.72 31.9302C1387.16 34.3065 1387.87 36.8916 1387.87 39.706H1388.87H1389.87C1389.87 36.5302 1389.06 33.586 1387.43 30.8936L1386.57 31.4119ZM1388.87 39.706H1387.87V89.8164H1388.87H1389.87V39.706H1388.87ZM1388.87 89.8164V88.8164H1371.25V89.8164V90.8164H1388.87V89.8164ZM1371.25 89.8164H1372.25V40.6276H1371.25H1370.25V89.8164H1371.25ZM1371.25 40.6276V39.6276H1338.76V40.6276V41.6276H1371.25V40.6276ZM1338.76 40.6276H1337.76V89.8164H1338.76H1339.76V40.6276H1338.76ZM1338.76 89.8164V88.8164H1321.14V89.8164V90.8164H1338.76V89.8164ZM1406.82 87.5125L1406.3 88.3677V88.3677L1406.82 87.5125ZM1400.71 81.4071L1401.57 80.8888V80.8888L1400.71 81.4071ZM1398.41 69.7723V68.7723H1397.41V69.7723H1398.41ZM1416.03 69.7723H1417.03V68.7723H1416.03V69.7723ZM1416.03 72.1914H1415.03V73.1914H1416.03V72.1914ZM1448.52 72.1914V73.1914H1449.52V72.1914H1448.52ZM1448.52 65.2796H1449.52V64.2796H1448.52V65.2796ZM1406.82 62.9757L1406.3 63.8309V63.8309L1406.82 62.9757ZM1400.71 56.8703L1399.86 57.3886L1400.71 56.8703ZM1400.71 31.4119L1399.86 30.8936L1400.71 31.4119ZM1406.82 25.3065L1407.34 26.1617V26.1617L1406.82 25.3065ZM1457.85 25.3065L1457.33 26.1617V26.1617L1457.85 25.3065ZM1463.95 31.4119L1464.81 30.8936V30.8936L1463.95 31.4119ZM1466.26 43.0467V44.0467H1467.26V43.0467H1466.26ZM1448.52 43.0467H1447.52V44.0467H1448.52V43.0467ZM1448.52 40.6276H1449.52V39.6276H1448.52V40.6276ZM1416.03 40.6276V39.6276H1415.03V40.6276H1416.03ZM1416.03 47.5394H1415.03V48.5394H1416.03V47.5394ZM1457.85 49.8433L1457.33 50.6985V50.6985L1457.85 49.8433ZM1463.95 55.9487L1464.81 55.4304V55.4304L1463.95 55.9487ZM1463.95 81.4071L1464.81 81.9254V81.9254L1463.95 81.4071ZM1457.85 87.5125L1458.37 88.3677L1457.85 87.5125ZM1415.11 89.8164V88.8164C1412.3 88.8164 1409.71 88.0975 1407.34 86.6573L1406.82 87.5125L1406.3 88.3677C1408.99 89.9994 1411.94 90.8164 1415.11 90.8164V89.8164ZM1406.82 87.5125L1407.34 86.6573C1404.94 85.2048 1403.02 83.2853 1401.57 80.8888L1400.71 81.4071L1399.86 81.9254C1401.48 84.5975 1403.63 86.7482 1406.3 88.3677L1406.82 87.5125ZM1400.71 81.4071L1401.57 80.8888C1400.13 78.5125 1399.41 75.9274 1399.41 73.1129H1398.41H1397.41C1397.41 76.2887 1398.23 79.233 1399.86 81.9254L1400.71 81.4071ZM1398.41 73.1129H1399.41V69.7723H1398.41H1397.41V73.1129H1398.41ZM1398.41 69.7723V70.7723H1416.03V69.7723V68.7723H1398.41V69.7723ZM1416.03 69.7723H1415.03V72.1914H1416.03H1417.03V69.7723H1416.03ZM1416.03 72.1914V73.1914H1448.52V72.1914V71.1914H1416.03V72.1914ZM1448.52 72.1914H1449.52V65.2796H1448.52H1447.52V72.1914H1448.52ZM1448.52 65.2796V64.2796H1415.11V65.2796V66.2796H1448.52V65.2796ZM1415.11 65.2796V64.2796C1412.3 64.2796 1409.71 63.5606 1407.34 62.1205L1406.82 62.9757L1406.3 63.8309C1408.99 65.4626 1411.94 66.2796 1415.11 66.2796V65.2796ZM1406.82 62.9757L1407.34 62.1205C1404.94 60.668 1403.02 58.7485 1401.57 56.352L1400.71 56.8703L1399.86 57.3886C1401.48 60.0607 1403.63 62.2114 1406.3 63.8309L1406.82 62.9757ZM1400.71 56.8703L1401.57 56.352C1400.13 53.9757 1399.41 51.3905 1399.41 48.5761H1398.41H1397.41C1397.41 51.7519 1398.23 54.6962 1399.86 57.3886L1400.71 56.8703ZM1398.41 48.5761H1399.41V39.706H1398.41H1397.41V48.5761H1398.41ZM1398.41 39.706H1399.41C1399.41 36.8916 1400.13 34.3065 1401.57 31.9302L1400.71 31.4119L1399.86 30.8936C1398.23 33.586 1397.41 36.5302 1397.41 39.706H1398.41ZM1400.71 31.4119L1401.57 31.9302C1403.02 29.5337 1404.94 27.6141 1407.34 26.1617L1406.82 25.3065L1406.3 24.4513C1403.63 26.0708 1401.48 28.2215 1399.86 30.8936L1400.71 31.4119ZM1406.82 25.3065L1407.34 26.1617C1409.71 24.7215 1412.3 24.0026 1415.11 24.0026V23.0026V22.0026C1411.94 22.0026 1408.99 22.8196 1406.3 24.4513L1406.82 25.3065ZM1415.11 23.0026V24.0026H1449.44V23.0026V22.0026H1415.11V23.0026ZM1449.44 23.0026V24.0026C1452.34 24.0026 1454.96 24.724 1457.33 26.1617L1457.85 25.3065L1458.37 24.4513C1455.67 22.8171 1452.69 22.0026 1449.44 22.0026V23.0026ZM1457.85 25.3065L1457.33 26.1617C1459.73 27.6141 1461.65 29.5337 1463.1 31.9302L1463.95 31.4119L1464.81 30.8936C1463.19 28.2215 1461.04 26.0708 1458.37 24.4513L1457.85 25.3065ZM1463.95 31.4119L1463.1 31.9302C1464.54 34.3065 1465.26 36.8916 1465.26 39.706H1466.26H1467.26C1467.26 36.5302 1466.44 33.586 1464.81 30.8936L1463.95 31.4119ZM1466.26 39.706H1465.26V43.0467H1466.26H1467.26V39.706H1466.26ZM1466.26 43.0467V42.0467H1448.52V43.0467V44.0467H1466.26V43.0467ZM1448.52 43.0467H1449.52V40.6276H1448.52H1447.52V43.0467H1448.52ZM1448.52 40.6276V39.6276H1416.03V40.6276V41.6276H1448.52V40.6276ZM1416.03 40.6276H1415.03V47.5394H1416.03H1417.03V40.6276H1416.03ZM1416.03 47.5394V48.5394H1449.44V47.5394V46.5394H1416.03V47.5394ZM1449.44 47.5394V48.5394C1452.34 48.5394 1454.96 49.2608 1457.33 50.6985L1457.85 49.8433L1458.37 48.9881C1455.67 47.3539 1452.69 46.5394 1449.44 46.5394V47.5394ZM1457.85 49.8433L1457.33 50.6985C1459.73 52.1509 1461.65 54.0705 1463.1 56.467L1463.95 55.9487L1464.81 55.4304C1463.19 52.7583 1461.04 50.6076 1458.37 48.9881L1457.85 49.8433ZM1463.95 55.9487L1463.1 56.467C1464.54 58.8433 1465.26 61.4284 1465.26 64.2428H1466.26H1467.26C1467.26 61.067 1466.44 58.1228 1464.81 55.4304L1463.95 55.9487ZM1466.26 64.2428H1465.26V73.1129H1466.26H1467.26V64.2428H1466.26ZM1466.26 73.1129H1465.26C1465.26 75.9274 1464.54 78.5125 1463.1 80.8888L1463.95 81.4071L1464.81 81.9254C1466.44 79.233 1467.26 76.2887 1467.26 73.1129H1466.26ZM1463.95 81.4071L1463.1 80.8888C1461.65 83.2853 1459.73 85.2048 1457.33 86.6573L1457.85 87.5125L1458.37 88.3677C1461.04 86.7482 1463.19 84.5975 1464.81 81.9254L1463.95 81.4071ZM1457.85 87.5125L1457.33 86.6573C1454.96 88.0949 1452.34 88.8164 1449.44 88.8164V89.8164V90.8164C1452.69 90.8164 1455.67 90.0019 1458.37 88.3677L1457.85 87.5125ZM1449.44 89.8164V88.8164H1415.11V89.8164V90.8164H1449.44V89.8164Z" fill="white" mask="url(#path-1-outside-1_2028_1980)"/>
</svg>
