<svg width="24" height="24" viewBox="0 0 24 24" fill="none" xmlns="http://www.w3.org/2000/svg">
<path d="M16.6 5.82C15.9166 5.03953 15.5399 4.0374 15.54 3H12.45V15.4C12.4267 16.0712 12.1436 16.7071 11.6603 17.1735C11.1771 17.6399 10.5316 17.9004 9.86003 17.9C8.44003 17.9 7.26003 16.74 7.26003 15.3C7.26003 13.58 8.92003 12.29 10.63 12.82V9.66C7.18003 9.2 4.16003 11.88 4.16003 15.3C4.16003 18.63 6.92003 21 9.85003 21C12.99 21 15.54 18.45 15.54 15.3V9.01C16.793 9.90985 18.2974 10.3926 19.84 10.39V7.3C19.84 7.3 17.96 7.39 16.6 5.82Z" fill="white"/>
</svg>
